<svg width="429" height="742" viewBox="0 0 429 742" fill="none" xmlns="http://www.w3.org/2000/svg">
<g opacity="0.3">
<path d="M78.9261 665.572C78.6776 664.275 79.5358 663.023 80.8424 662.777C82.1489 662.53 83.4091 663.382 83.6576 664.679C83.9062 665.977 83.048 667.228 81.7414 667.475C80.4349 667.721 79.1747 666.869 78.9261 665.572Z" fill="#E4FFFB"/>
<path d="M157.116 699.696C156.867 698.398 157.726 697.147 159.032 696.901C160.339 696.654 161.599 697.506 161.847 698.803C162.096 700.1 161.238 701.352 159.931 701.598C158.625 701.845 157.365 700.993 157.116 699.696Z" fill="#DBFFF6"/>
<path d="M106.419 612.567C106.171 611.269 107.029 610.018 108.335 609.771C109.642 609.524 110.902 610.377 111.15 611.674C111.399 612.971 110.541 614.223 109.235 614.469C107.928 614.715 106.667 613.864 106.419 612.567Z" fill="#EFFFEE"/>
<path d="M32.275 510.116C32.0264 508.819 32.8846 507.567 34.1912 507.321C35.4977 507.074 36.7585 507.926 37.0065 509.223C37.255 510.52 36.3968 511.772 35.0902 512.019C33.7837 512.265 32.5235 511.413 32.275 510.116Z" fill="#2D9E45"/>
<path d="M56.1585 538.036C55.9099 536.739 56.7681 535.487 58.0747 535.241C59.3812 534.994 60.6414 535.846 60.8899 537.143C61.1385 538.44 60.2803 539.692 58.9737 539.939C57.6672 540.185 56.4064 539.333 56.1585 538.036Z" fill="#FFFFE0"/>
<path d="M49.2003 569.153C48.9518 567.856 49.8094 566.604 51.1165 566.358C52.4231 566.111 53.6832 566.963 53.9318 568.26C54.1798 569.557 53.3221 570.809 52.0156 571.056C50.7091 571.302 49.4483 570.45 49.2003 569.153Z" fill="#2D9E45"/>
<path d="M97.656 573.69C97.4081 572.392 98.2657 571.141 99.5722 570.894C100.879 570.648 102.14 571.5 102.387 572.797C102.636 574.094 101.778 575.346 100.472 575.592C99.1647 575.838 97.9046 574.987 97.656 573.69Z" fill="#E9FFFA"/>
<path d="M27.9234 737.217C27.6748 735.919 28.533 734.668 29.8396 734.421C31.1461 734.174 32.4063 735.027 32.6548 736.324C32.9034 737.621 32.0452 738.873 30.7386 739.119C29.4321 739.365 28.1719 738.514 27.9234 737.217Z" fill="#FFFFEC"/>
<path d="M52.1579 587.909C51.9093 586.612 52.7669 585.36 54.0735 585.113C55.3806 584.867 56.6408 585.719 56.8893 587.016C57.1373 588.313 56.2797 589.565 54.9731 589.811C53.6666 590.058 52.4058 589.206 52.1579 587.909Z" fill="#EEFFF6"/>
<path d="M3.05176e-05 681.82C0.603524 681.279 0.922583 680.454 0.759962 679.603C0.657318 679.068 0.377832 678.617 3.03628e-05 678.279L3.05176e-05 681.82Z" fill="#F9FFE6"/>
<path d="M82.7761 515.933C82.5282 514.636 83.3858 513.385 84.6924 513.138C85.9995 512.891 87.2597 513.743 87.5083 515.041C87.7562 516.338 86.8986 517.589 85.592 517.835C84.2855 518.082 83.0247 517.231 82.7761 515.933Z" fill="#2D9E45"/>
<path d="M36.0803 455.573C35.8323 454.275 36.6899 453.024 37.9965 452.777C39.303 452.53 40.5638 453.382 40.8124 454.68C41.0603 455.977 40.2027 457.228 38.8961 457.475C37.5896 457.721 36.3288 456.869 36.0803 455.573Z" fill="#2D9E45"/>
<path d="M77.7326 469.649C77.4841 468.352 78.3423 467.1 79.6489 466.854C80.9554 466.607 82.2156 467.459 82.4641 468.756C82.7127 470.053 81.8545 471.305 80.5479 471.552C79.2414 471.798 77.9806 470.946 77.7326 469.649Z" fill="#2D9E45"/>
<path d="M150.037 458.138C149.788 456.84 150.646 455.589 151.953 455.342C153.259 455.096 154.52 455.947 154.768 457.245C155.017 458.542 154.159 459.794 152.852 460.04C151.545 460.287 150.285 459.435 150.037 458.138Z" fill="#F9FFDD"/>
<path d="M5.32824 367.495C5.07967 366.197 5.93791 364.946 7.24445 364.699C8.55099 364.453 9.81177 365.304 10.0597 366.602C10.3083 367.899 9.45004 369.15 8.14351 369.397C6.83697 369.644 5.57681 368.792 5.32824 367.495Z" fill="#2D9E45"/>
<path d="M47.217 363.909C46.969 362.612 47.8267 361.361 49.1332 361.114C50.4398 360.868 51.7005 361.72 51.9485 363.017C52.1971 364.313 51.3394 365.565 50.0323 365.812C48.7257 366.058 47.4656 365.206 47.217 363.909Z" fill="#FFFFEF"/>
<path d="M3.37403 619.123C3.12546 617.826 3.98309 616.574 5.29025 616.328C6.59679 616.081 7.85695 616.933 8.10552 618.23C8.35347 619.527 7.49584 620.779 6.18931 621.026C4.88277 621.272 3.62199 620.42 3.37403 619.123Z" fill="#2D9E45"/>
<path d="M106.296 332.387C106.047 331.09 106.905 329.838 108.211 329.591C109.518 329.345 110.779 330.197 111.027 331.494C111.275 332.791 110.418 334.043 109.111 334.289C107.804 334.536 106.544 333.684 106.296 332.387Z" fill="#FFFFE6"/>
<path d="M29.3766 735.002C29.128 733.705 29.9863 732.453 31.2928 732.207C32.5994 731.961 33.8595 732.812 34.1081 734.109C34.3567 735.407 33.4984 736.658 32.1919 736.905C30.8853 737.151 29.6252 736.299 29.3766 735.002Z" fill="#EAF7F1"/>
<path d="M6.32506 552.089C6.07711 550.792 6.93473 549.54 8.24127 549.294C9.54781 549.047 10.8086 549.899 11.0565 551.196C11.3051 552.493 10.4475 553.745 9.14033 553.991C7.83379 554.238 6.57363 553.386 6.32506 552.089Z" fill="#2D9E45"/>
<path d="M53.268 552.392C53.0201 551.095 53.8777 549.843 55.1843 549.596C56.4908 549.35 57.7516 550.202 57.9995 551.499C58.2481 552.796 57.3905 554.048 56.0839 554.294C54.7768 554.541 53.5166 553.689 53.268 552.392Z" fill="#2D9E45"/>
<path d="M45.2769 150.706C45.0284 149.408 45.8866 148.157 47.1932 147.911C48.4997 147.664 49.7605 148.516 50.0084 149.813C50.257 151.11 49.3988 152.362 48.0922 152.608C46.7857 152.855 45.5255 152.003 45.2769 150.706Z" fill="#2D9E45"/>
<path d="M154.069 368.352C153.821 367.056 154.679 365.804 155.985 365.558C157.292 365.311 158.552 366.163 158.801 367.46C159.049 368.757 158.191 370.008 156.885 370.255C155.578 370.502 154.317 369.65 154.069 368.352Z" fill="#2D9E45"/>
<path d="M225.643 729.057C225.395 727.76 226.253 726.509 227.559 726.262C228.866 726.015 230.126 726.868 230.375 728.164C230.623 729.461 229.765 730.713 228.459 730.96C227.152 731.206 225.891 730.354 225.643 729.057Z" fill="#2D9E45"/>
<path d="M29.834 688.122C29.5861 686.825 30.4437 685.574 31.7503 685.328C33.0568 685.081 34.3176 685.932 34.5655 687.23C34.8141 688.527 33.9565 689.778 32.6499 690.025C31.3428 690.272 30.0826 689.42 29.834 688.122Z" fill="#F1F7FF"/>
<path d="M42.2625 229.87C42.0139 228.573 42.8722 227.321 44.1787 227.075C45.4852 226.828 46.746 227.68 46.994 228.977C47.2425 230.274 46.3843 231.526 45.0778 231.772C43.7712 232.019 42.5111 231.167 42.2625 229.87Z" fill="#F3FFF1"/>
<path d="M181.589 414.759C181.341 413.461 182.199 412.21 183.506 411.964C184.812 411.717 186.073 412.568 186.321 413.866C186.569 415.163 185.711 416.414 184.405 416.661C183.098 416.908 181.838 416.056 181.589 414.759Z" fill="#2D9E45"/>
<path d="M96.3161 515.489C96.0682 514.192 96.9258 512.941 98.2323 512.694C99.5395 512.447 100.8 513.299 101.048 514.596C101.296 515.894 100.439 517.145 99.132 517.392C97.8255 517.638 96.5647 516.787 96.3161 515.489Z" fill="#2D9E45"/>
<path d="M123.981 617.844C123.732 616.547 124.591 615.295 125.897 615.048C127.204 614.802 128.464 615.654 128.712 616.951C128.961 618.248 128.103 619.5 126.796 619.746C125.49 619.993 124.229 619.141 123.981 617.844Z" fill="#2D9E45"/>
<path d="M92.973 574.722C92.7244 573.424 93.5827 572.173 94.8892 571.927C96.1957 571.68 97.4559 572.532 97.7045 573.829C97.953 575.127 97.0948 576.378 95.7883 576.624C94.4817 576.871 93.2209 576.019 92.973 574.722Z" fill="#2D9E45"/>
<path d="M172.777 321.019C172.529 319.722 173.387 318.47 174.694 318.223C176 317.977 177.261 318.829 177.509 320.126C177.757 321.423 176.899 322.675 175.593 322.922C174.286 323.168 173.026 322.316 172.777 321.019Z" fill="#2D9E45"/>
<path d="M91.1638 443.965C90.9152 442.668 91.7729 441.417 93.0794 441.17C94.3865 440.923 95.6467 441.775 95.8953 443.073C96.1432 444.369 95.2856 445.621 93.9791 445.867C92.6725 446.114 91.4117 445.262 91.1638 443.965Z" fill="#2D9E45"/>
<path d="M19.6211 343.846C19.3732 342.549 20.2308 341.297 21.5373 341.051C22.8439 340.804 24.1046 341.656 24.3526 342.953C24.6012 344.25 23.7435 345.502 22.437 345.748C21.1298 345.995 19.8697 345.143 19.6211 343.846Z" fill="#2D9E45"/>
<path d="M119.123 125.326C118.875 124.028 119.732 122.777 121.039 122.53C122.345 122.284 123.606 123.136 123.854 124.433C124.103 125.73 123.245 126.982 121.939 127.228C120.631 127.474 119.371 126.623 119.123 125.326Z" fill="#F5FFF5"/>
<path d="M154.236 337.192C153.987 335.894 154.845 334.643 156.152 334.396C157.458 334.15 158.719 335.002 158.967 336.299C159.216 337.596 158.357 338.848 157.051 339.094C155.744 339.34 154.484 338.488 154.236 337.192Z" fill="#2D9E45"/>
<path d="M172.596 288.841C172.348 287.543 173.205 286.292 174.512 286.045C175.818 285.798 177.079 286.651 177.327 287.948C177.576 289.245 176.718 290.497 175.411 290.743C174.104 290.989 172.844 290.137 172.596 288.841Z" fill="#2D9E45"/>
<path d="M110.198 360.954C109.95 359.656 110.808 358.405 112.114 358.158C113.421 357.912 114.682 358.763 114.93 360.061C115.178 361.358 114.32 362.609 113.014 362.856C111.707 363.103 110.447 362.251 110.198 360.954Z" fill="#2D9E45"/>
<path d="M84.369 661.269C84.121 659.971 84.9787 658.72 86.2852 658.473C87.5917 658.226 88.8525 659.078 89.1005 660.376C89.349 661.673 88.4914 662.924 87.1849 663.171C85.8777 663.417 84.6176 662.566 84.369 661.269Z" fill="#2D9E45"/>
<path d="M49.2622 711.443C49.0136 710.145 49.8719 708.894 51.1784 708.647C52.4849 708.401 53.7451 709.253 53.9937 710.55C54.2422 711.847 53.384 713.099 52.0775 713.345C50.7709 713.591 49.5108 712.74 49.2622 711.443Z" fill="#2D9E45"/>
<path d="M112.016 738.955C110.71 739.201 109.852 740.453 110.1 741.75C110.117 741.837 110.149 741.917 110.175 742L114.759 742C114.87 741.64 114.908 741.252 114.832 740.857C114.583 739.56 113.323 738.708 112.016 738.955Z" fill="#F0F3EC"/>
<path d="M1.75978 641.615C1.51182 640.317 2.36945 639.066 3.67599 638.819C4.98253 638.572 6.24331 639.424 6.49126 640.722C6.73983 642.019 5.8822 643.271 4.57567 643.517C3.26851 643.763 2.00835 642.912 1.75978 641.615Z" fill="#FFEDE7"/>
<path d="M153.372 77.7403C153.123 76.4431 153.981 75.1916 155.288 74.9448C156.595 74.6981 157.855 75.5502 158.103 76.8475C158.351 78.1447 157.494 79.3962 156.187 79.6429C154.881 79.889 153.62 79.0376 153.372 77.7403Z" fill="#2D9E45"/>
<path d="M83.8393 263.22C83.5907 261.923 84.4483 260.671 85.7549 260.425C87.062 260.178 88.3222 261.03 88.5708 262.327C88.8187 263.624 87.9611 264.876 86.6546 265.123C85.348 265.369 84.0872 264.517 83.8393 263.22Z" fill="#2D9E45"/>
<path d="M131.332 352.879C131.084 351.582 131.942 350.331 133.249 350.084C134.555 349.837 135.816 350.689 136.064 351.987C136.312 353.284 135.455 354.535 134.148 354.781C132.841 355.028 131.581 354.177 131.332 352.879Z" fill="#2D9E45"/>
<path d="M226.052 105.671C225.804 104.374 226.662 103.123 227.968 102.876C229.275 102.629 230.535 103.481 230.784 104.779C231.032 106.076 230.174 107.327 228.867 107.573C227.561 107.82 226.3 106.969 226.052 105.671Z" fill="#2D9E45"/>
<path d="M79.6322 86.9507C79.3836 85.6534 80.2419 84.4019 81.5484 84.1552C82.855 83.9085 84.1151 84.7606 84.3637 86.0578C84.6123 87.3551 83.754 88.6066 82.4475 88.8527C81.1409 89.0994 79.8802 88.248 79.6322 86.9507Z" fill="#2D9E45"/>
<path d="M165.861 662.793C165.613 661.495 166.47 660.244 167.777 659.997C169.083 659.751 170.344 660.603 170.592 661.9C170.841 663.197 169.983 664.449 168.676 664.695C167.369 664.942 166.109 664.09 165.861 662.793Z" fill="#F9F8FF"/>
<path d="M116.568 154.333C116.32 153.036 117.178 151.784 118.484 151.538C119.791 151.291 121.051 152.143 121.3 153.44C121.548 154.737 120.69 155.989 119.384 156.236C118.077 156.482 116.816 155.63 116.568 154.333Z" fill="#2D9E45"/>
<path d="M147.432 160.602C147.184 159.304 148.042 158.053 149.349 157.806C150.655 157.559 151.915 158.412 152.164 159.709C152.413 161.006 151.554 162.258 150.248 162.504C148.941 162.75 147.68 161.899 147.432 160.602Z" fill="#2D9E45"/>
<path d="M98.686 279.01C98.438 277.712 99.2957 276.461 100.602 276.214C101.909 275.967 103.17 276.819 103.417 278.117C103.666 279.414 102.808 280.666 101.501 280.912C100.195 281.158 98.9345 280.307 98.686 279.01Z" fill="#F7FFFF"/>
<path d="M160.905 392.592C160.656 391.294 161.514 390.043 162.821 389.796C164.127 389.55 165.388 390.402 165.636 391.699C165.885 392.996 165.027 394.248 163.72 394.494C162.413 394.74 161.153 393.889 160.905 392.592Z" fill="#FCFFF4"/>
<path d="M281.07 667.548C280.822 666.251 281.68 664.999 282.986 664.753C284.293 664.506 285.553 665.358 285.802 666.655C286.05 667.952 285.192 669.204 283.886 669.45C282.579 669.697 281.318 668.845 281.07 667.548Z" fill="#2D9E45"/>
<path d="M35.3268 254.55C35.0788 253.253 35.9364 252.001 37.243 251.754C38.5495 251.508 39.8103 252.36 40.0589 253.657C40.3068 254.954 39.4492 256.206 38.1426 256.453C36.8355 256.699 35.5753 255.847 35.3268 254.55Z" fill="#2D9E45"/>
<path d="M34.0492 518.754C33.8013 517.456 34.6589 516.205 35.9654 515.958C37.272 515.712 38.5328 516.563 38.7807 517.861C39.0293 519.158 38.1717 520.409 36.8651 520.656C35.558 520.902 34.2978 520.051 34.0492 518.754Z" fill="#FFEDFF"/>
<path d="M234.743 603.307C234.495 602.01 235.353 600.758 236.66 600.511C237.966 600.265 239.227 601.117 239.475 602.414C239.723 603.711 238.865 604.963 237.559 605.209C236.252 605.456 234.992 604.604 234.743 603.307Z" fill="#FFFEE5"/>
<path d="M286.394 286.55C286.145 285.252 287.004 284.001 288.31 283.754C289.617 283.508 290.877 284.36 291.125 285.657C291.374 286.954 290.516 288.206 289.209 288.452C287.903 288.698 286.642 287.847 286.394 286.55Z" fill="#2D9E45"/>
<path d="M190.505 514.312C190.257 513.015 191.115 511.764 192.422 511.517C193.728 511.27 194.989 512.122 195.237 513.419C195.485 514.717 194.628 515.968 193.321 516.214C192.014 516.461 190.754 515.61 190.505 514.312Z" fill="#FFFCFF"/>
<path d="M254.888 232.916C254.64 231.618 255.498 230.367 256.804 230.12C258.111 229.873 259.372 230.725 259.62 232.023C259.868 233.32 259.011 234.572 257.704 234.818C256.397 235.064 255.137 234.213 254.888 232.916Z" fill="#2D9E45"/>
<path d="M269.272 163.43C269.023 162.133 269.881 160.881 271.188 160.634C272.494 160.388 273.755 161.24 274.003 162.537C274.252 163.834 273.393 165.086 272.087 165.332C270.78 165.579 269.52 164.727 269.272 163.43Z" fill="#2D9E45"/>
<path d="M173.932 132.931C173.684 131.634 174.542 130.382 175.848 130.136C177.155 129.889 178.416 130.741 178.664 132.038C178.912 133.335 178.054 134.586 176.748 134.833C175.441 135.08 174.181 134.228 173.932 132.931Z" fill="#2D9E45"/>
<path d="M158.474 49.5407C158.226 48.2434 159.083 46.9919 160.39 46.7458C161.696 46.4991 162.957 47.3506 163.205 48.6478C163.454 49.9451 162.596 51.1966 161.289 51.4433C159.982 51.69 158.722 50.838 158.474 49.5407Z" fill="#2D9E45"/>
<path d="M317.288 150.762C317.04 149.465 317.898 148.214 319.204 147.968C320.511 147.721 321.771 148.572 322.02 149.87C322.268 151.167 321.41 152.418 320.104 152.665C318.797 152.912 317.536 152.06 317.288 150.762Z" fill="#E7FFFF"/>
<path d="M210.454 541.729C210.206 540.431 211.064 539.18 212.37 538.933C213.677 538.687 214.938 539.539 215.186 540.836C215.434 542.133 214.577 543.385 213.27 543.631C211.963 543.878 210.703 543.026 210.454 541.729Z" fill="#FFF6FF"/>
<path d="M116.375 133.887C116.127 132.59 116.984 131.338 118.291 131.091C119.597 130.845 120.858 131.697 121.106 132.994C121.355 134.291 120.497 135.543 119.19 135.789C117.883 136.035 116.623 135.183 116.375 133.887Z" fill="#2D9E45"/>
<path d="M274.139 246.748C273.891 245.451 274.749 244.199 276.055 243.952C277.362 243.706 278.622 244.558 278.871 245.855C279.119 247.152 278.261 248.404 276.954 248.651C275.648 248.897 274.387 248.045 274.139 246.748Z" fill="#E4FFFF"/>
<path d="M265.533 741.022C264.892 741.143 264.36 741.508 264.013 742L267.95 742C267.423 741.255 266.492 740.841 265.533 741.022Z" fill="#F1EFF5"/>
<path d="M102.368 274.984C102.12 273.686 102.978 272.435 104.284 272.189C105.591 271.942 106.851 272.793 107.1 274.091C107.348 275.388 106.49 276.639 105.184 276.886C103.877 277.133 102.616 276.281 102.368 274.984Z" fill="#EEF2FF"/>
<path d="M336.061 284.149C335.812 282.851 336.671 281.6 337.977 281.353C339.284 281.107 340.544 281.958 340.792 283.256C341.041 284.553 340.183 285.805 338.876 286.051C337.57 286.298 336.31 285.446 336.061 284.149Z" fill="#2D9E45"/>
<path d="M228.979 241.982C228.731 240.685 229.589 239.433 230.895 239.187C232.202 238.94 233.463 239.792 233.711 241.089C233.959 242.386 233.101 243.638 231.794 243.884C230.488 244.131 229.228 243.279 228.979 241.982Z" fill="#2D9E45"/>
<path d="M153.224 0.000229788C152.431 0.514065 151.985 1.46692 152.173 2.4476C152.421 3.74486 153.682 4.59632 154.989 4.35023C156.295 4.10351 157.153 2.85201 156.905 1.55474C156.778 0.88818 156.38 0.342786 155.849 0.000229673L153.224 0.000229788Z" fill="#FFFEF2"/>
<path d="M195.623 24.1764C195.375 22.8792 196.233 21.6277 197.539 21.381C198.846 21.1349 200.106 21.9863 200.355 23.2836C200.603 24.5808 199.745 25.8323 198.438 26.0791C197.132 26.3258 195.871 25.4737 195.623 24.1764Z" fill="#2D9E45"/>
<path d="M66.6483 116.597C66.3997 115.3 67.2574 114.048 68.5639 113.801C69.8711 113.555 71.1312 114.407 71.3798 115.704C71.6278 117.001 70.7701 118.253 69.4636 118.499C68.157 118.745 66.8963 117.894 66.6483 116.597Z" fill="#2D9E45"/>
<path d="M86.7051 150.677C86.4565 149.38 87.3148 148.128 88.6213 147.881C89.9278 147.635 91.1886 148.487 91.4366 149.784C91.6852 151.081 90.8269 152.333 89.5204 152.579C88.2138 152.826 86.9537 151.973 86.7051 150.677Z" fill="#F8EEF8"/>
<path d="M423.576 214.471C423.327 213.173 424.186 211.922 425.492 211.675C426.799 211.428 428.06 212.28 428.308 213.578C428.556 214.875 427.698 216.126 426.391 216.372C425.085 216.619 423.825 215.768 423.576 214.471Z" fill="#2D9E45"/>
<path opacity="0.9234" d="M159.628 698.924L81.4369 664.797C81.2551 664.717 81.0424 664.798 80.9614 664.979C80.881 665.16 80.9633 665.371 81.145 665.451L159.339 699.578C159.522 699.655 159.733 699.57 159.811 699.389C159.887 699.21 159.806 699.004 159.628 698.924Z" fill="#DFFFF9"/>
<path opacity="0.9791" d="M108.468 611.955L80.9713 664.961C80.8804 665.136 80.9503 665.352 81.1272 665.442C81.304 665.532 81.521 665.462 81.6113 665.287L109.105 612.285C109.197 612.11 109.129 611.895 108.953 611.803C108.777 611.712 108.559 611.78 108.468 611.955Z" fill="#EAFFF5"/>
<path opacity="0.5819" d="M2.8851e-05 627.356L81.1377 665.449C81.3176 665.533 81.5322 665.457 81.6175 665.278C81.7022 665.1 81.6256 664.886 81.4456 664.802L2.88164e-05 626.565L2.8851e-05 627.356Z" fill="#E8FFF5"/>
<path opacity="0.8589" d="M108.475 612.299L159.172 699.428C159.271 699.599 159.491 699.657 159.663 699.558C159.835 699.46 159.894 699.241 159.795 699.071L109.098 611.941C108.998 611.771 108.778 611.712 108.606 611.811C108.434 611.91 108.376 612.128 108.475 612.299Z" fill="#E5FFF2"/>
<path opacity="0.6595" d="M3.05176e-05 624.45L108.827 612.475C109.025 612.453 109.167 612.276 109.144 612.079C109.122 611.883 108.944 611.742 108.746 611.764L3.04861e-05 623.73L3.05176e-05 624.45Z" fill="#EDFFEE"/>
<path opacity="0.8034" d="M58.2251 537.787L108.486 612.318C108.603 612.478 108.827 612.513 108.988 612.397C109.14 612.288 109.181 612.081 109.083 611.922L58.8224 537.392C58.7056 537.232 58.4811 537.196 58.3204 537.312C58.1682 537.422 58.1268 537.628 58.2251 537.787Z" fill="#F7FFE7"/>
<path opacity="0.9161" d="M51.3493 568.992L108.568 612.405C108.726 612.525 108.953 612.494 109.073 612.337C109.193 612.18 109.163 611.955 109.005 611.836L51.7858 568.426C51.6226 568.314 51.3987 568.355 51.2862 568.518C51.1817 568.669 51.2089 568.873 51.3493 568.992Z" fill="#F8FFE9"/>
<path opacity="0.6458" d="M34.3002 509.552L3.04211e-05 609.155L3.05176e-05 611.364L34.981 509.783C35.0453 509.596 34.9451 509.394 34.7572 509.33C34.5692 509.266 34.3645 509.366 34.3002 509.552Z" fill="#F0FFF5"/>
<path opacity="0.9643" d="M99.6709 573.32L108.434 612.198C108.477 612.39 108.668 612.511 108.862 612.469C109.057 612.426 109.179 612.235 109.136 612.043L100.372 573.162C100.328 572.97 100.136 572.849 99.9418 572.893C99.7482 572.936 99.627 573.128 99.6709 573.32Z" fill="#ECFFF4"/>
<path opacity="0.7772" d="M3.04643e-05 617.234L3.05176e-05 618.452L58.8128 537.8C58.9303 537.641 58.8944 537.417 58.7343 537.301C58.5735 537.185 58.3484 537.22 58.2316 537.38L3.04643e-05 617.234Z" fill="#F5FFE7"/>
<path opacity="0.9742" d="M3.04735e-05 619.231L3.05176e-05 620.24L51.8194 568.961C51.9487 568.811 51.932 568.586 51.7817 568.457C51.6469 568.342 51.4478 568.342 51.313 568.457L3.04735e-05 619.231Z" fill="#F5FFE9"/>
<path d="M34.3666 509.9L58.2497 537.82C58.3857 537.963 58.6133 537.969 58.758 537.835C58.8915 537.71 58.9088 537.505 58.7988 537.36L34.9156 509.44C34.7796 509.297 34.5521 509.29 34.4074 509.425C34.2738 509.55 34.2565 509.754 34.3666 509.9Z" fill="#FAFFEE"/>
<path opacity="0.9909" d="M34.2942 509.768L51.2223 568.804C51.2853 568.992 51.4888 569.093 51.6767 569.03C51.8536 568.972 51.9562 568.789 51.9129 568.609L34.9879 509.571C34.9335 509.381 34.7338 509.271 34.5421 509.325C34.3504 509.379 34.2397 509.577 34.2942 509.768Z" fill="#FBFFEF"/>
<path opacity="0.5726" d="M3.04829e-05 621.815L3.05176e-05 622.607L100.178 573.562C100.356 573.475 100.43 573.261 100.343 573.085C100.255 572.908 100.04 572.834 99.8615 572.921L3.04829e-05 621.815Z" fill="#EAFFF4"/>
<path opacity="0.9461" d="M100.273 572.988L34.8927 509.415C34.7437 509.284 34.5161 509.299 34.385 509.446C34.2632 509.583 34.2657 509.789 34.39 509.924L99.7707 573.497C99.9197 573.628 100.147 573.614 100.278 573.466C100.4 573.329 100.398 573.123 100.273 572.988Z" fill="#EFFFFB"/>
<path opacity="0.9909" d="M51.9176 568.786L58.8751 537.665C58.9178 537.473 58.7953 537.282 58.6012 537.239C58.407 537.196 58.2153 537.318 58.1721 537.51L51.2146 568.631C51.1719 568.824 51.2943 569.015 51.4885 569.057C51.682 569.1 51.8743 568.979 51.9176 568.786Z" fill="#2D9E45"/>
<path d="M100.256 572.974L58.7577 537.321C58.6075 537.192 58.3805 537.207 58.2507 537.356C58.1202 537.505 58.1363 537.731 58.2865 537.86L99.7847 573.513C99.9344 573.642 100.161 573.626 100.292 573.477C100.422 573.328 100.406 573.103 100.256 572.974Z" fill="#F4FFED"/>
<path opacity="0.9909" d="M100.052 572.888L51.5998 568.352C51.4025 568.334 51.2275 568.479 51.2102 568.676C51.1929 568.87 51.3357 569.042 51.5311 569.062L99.9874 573.598C100.186 573.606 100.353 573.452 100.36 573.256C100.367 573.073 100.235 572.914 100.052 572.888Z" fill="#F4FFEE"/>
<path opacity="0.5601" d="M2.63418e-05 641.597L29.9434 736.875C30.0016 737.064 30.2031 737.17 30.393 737.112C30.5828 737.054 30.6898 736.854 30.631 736.666L2.62369e-05 639.198L2.63418e-05 641.597Z" fill="#F8FFED"/>
<path opacity="0.772" d="M3.04807e-05 621.118L3.05176e-05 621.961L54.7126 587.764C54.8759 587.652 54.9167 587.43 54.8035 587.268C54.6978 587.116 54.4919 587.069 54.3299 587.161L3.04807e-05 621.118Z" fill="#ECFFF3"/>
<path opacity="0.8519" d="M54.8723 587.374L34.9904 509.581C34.9416 509.39 34.7456 509.274 34.5526 509.323C34.3603 509.371 34.2435 509.566 34.2923 509.757L54.1742 587.55C54.2231 587.741 54.4191 587.857 54.6114 587.809C54.8043 587.76 54.9211 587.566 54.8723 587.374Z" fill="#F1FFF9"/>
<path d="M54.8801 587.493L58.8801 537.617C58.8888 537.42 58.7348 537.254 58.5363 537.245C58.3471 537.238 58.1845 537.376 58.1641 537.563L54.1635 587.436C54.1474 587.633 54.2952 587.805 54.493 587.821C54.6909 587.837 54.864 587.69 54.8801 587.493Z" fill="#2D9E45"/>
<path opacity="0.9909" d="M54.8788 587.41L51.9213 568.654C51.891 568.459 51.7073 568.326 51.5113 568.356C51.3147 568.386 51.1805 568.568 51.2102 568.763L54.1677 587.519C54.198 587.714 54.3816 587.847 54.5783 587.818C54.7743 587.787 54.9091 587.605 54.8788 587.41Z" fill="#F7FFED"/>
<path opacity="0.5369" d="M51.2401 568.554L3.04446e-05 675.851L3.05176e-05 677.521L51.8912 568.86C51.9765 568.681 51.8998 568.468 51.7199 568.384C51.5399 568.299 51.3254 568.375 51.2401 568.554Z" fill="#FCFFE5"/>
<path opacity="0.4935" d="M38.087 455.103L34.2812 509.643C34.2676 509.84 34.4172 510.011 34.6157 510.025C34.8142 510.039 34.9867 509.89 35.0003 509.692L38.8067 455.152C38.8203 454.956 38.6707 454.784 38.4716 454.771C38.2731 454.757 38.1012 454.906 38.087 455.103Z" fill="#FBFFFE"/>
<path d="M54.6291 587.806L100.127 573.583C100.317 573.524 100.423 573.324 100.363 573.135C100.304 572.947 100.102 572.841 99.9121 572.901L54.4145 587.124C54.2247 587.182 54.119 587.383 54.1783 587.571C54.2371 587.759 54.4393 587.864 54.6291 587.806Z" fill="#EBFFF8"/>
<path opacity="0.5529" d="M29.971 736.601L27.0624 742L27.8768 742L30.603 736.94C30.6883 736.761 30.6129 736.549 30.4336 736.464C30.2666 736.385 30.0669 736.444 29.971 736.601Z" fill="#FBF9F5"/>
<path opacity="0.9487" d="M84.9136 515.211L58.2925 537.318C58.1522 537.457 58.1522 537.683 58.2925 537.822C58.4156 537.944 58.6085 537.961 58.7514 537.863L85.3737 515.76C85.5264 515.633 85.5468 515.408 85.4201 515.257C85.2933 515.105 85.0664 515.085 84.9136 515.211Z" fill="#FBFFE5"/>
<path opacity="0.8365" d="M84.8389 515.298L51.2622 568.517C51.1571 568.684 51.2078 568.905 51.3766 569.01C51.5454 569.114 51.7674 569.063 51.8725 568.896L85.4492 515.676C85.5543 515.509 85.5036 515.288 85.3348 515.184C85.166 515.079 84.944 515.13 84.8389 515.298Z" fill="#FBFFE7"/>
<path opacity="0.4943" d="M38.0969 455.21L58.1742 537.674C58.2212 537.865 58.416 537.984 58.6089 537.937C58.8018 537.891 58.9205 537.697 58.8742 537.506L38.7963 455.042C38.7493 454.85 38.5551 454.732 38.3616 454.779C38.1687 454.825 38.0499 455.019 38.0969 455.21Z" fill="#FFFFF0"/>
<path opacity="0.9596" d="M84.7931 515.575L99.6727 573.331C99.7363 573.518 99.941 573.617 100.128 573.554C100.297 573.497 100.398 573.327 100.366 573.153L85.4906 515.396C85.4411 515.205 85.2445 515.09 85.0515 515.14C84.8592 515.189 84.7436 515.384 84.7931 515.575Z" fill="#F0FFF2"/>
<path opacity="0.9809" d="M2.81794e-05 683.637L29.975 736.946C30.0727 737.118 30.2922 737.179 30.4659 737.082C30.6391 736.985 30.7009 736.767 30.6032 736.595L2.81153e-05 682.171L2.81794e-05 683.637Z" fill="#2D9E45"/>
<path opacity="0.8539" d="M54.2142 587.281L3.04572e-05 676.709L3.05176e-05 678.091L54.8295 587.648C54.9222 587.474 54.8561 587.258 54.6805 587.166C54.5178 587.08 54.3169 587.13 54.2142 587.281Z" fill="#F3FFEE"/>
<path opacity="0.9967" d="M84.8119 515.346L54.1932 587.325C54.1259 587.51 54.2223 587.715 54.409 587.782C54.5816 587.843 54.7732 587.767 54.8536 587.604L85.4722 515.625C85.5396 515.439 85.4426 515.235 85.2558 515.168C85.0839 515.106 84.8929 515.183 84.8119 515.346Z" fill="#2D9E45"/>
<path d="M30.1841 736.43L11.8288 742L14.2824 742L30.3943 737.11C30.5786 737.035 30.6664 736.827 30.5915 736.645C30.526 736.484 30.3541 736.394 30.1841 736.43Z" fill="#FFFBEA"/>
<path opacity="0.5433" d="M79.7477 469.131L54.1722 587.387C54.1382 587.581 54.2686 587.766 54.464 587.8C54.6489 587.832 54.827 587.718 54.874 587.538L80.4489 469.278C80.4761 469.083 80.3382 468.903 80.1415 468.877C79.9647 468.853 79.7971 468.961 79.7477 469.131Z" fill="#F9FFED"/>
<path opacity="0.9878" d="M29.9689 736.605L27.1369 742L27.9476 742L30.6064 736.935C30.6979 736.761 30.6299 736.545 30.4537 736.454C30.2775 736.363 30.0604 736.431 29.9689 736.605Z" fill="#F9FAFF"/>
<path opacity="0.9917" d="M29.9305 736.808L30.5074 742L31.229 742L30.644 736.732C30.6106 736.538 30.4251 736.407 30.2297 736.44C30.0504 736.47 29.9218 736.629 29.9305 736.808Z" fill="#F9FDE8"/>
<path d="M38.1624 455.343L84.8583 515.704C84.9795 515.861 85.2052 515.89 85.3635 515.77C85.5211 515.65 85.5508 515.426 85.4302 515.269L38.7306 454.909C38.5983 454.762 38.3708 454.75 38.223 454.881C38.0906 454.999 38.0647 455.195 38.1624 455.343Z" fill="#FCFFF5"/>
<path opacity="0.929" d="M2.80148e-05 684.744L24.3531 742L25.1322 742L2.79345e-05 682.906L2.80148e-05 684.744Z" fill="#F3FDE5"/>
<path d="M79.7397 469.242L84.7878 515.525C84.8206 515.719 85.0061 515.85 85.2021 515.817C85.3814 515.787 85.5094 515.629 85.5008 515.448L80.4533 469.165C80.4199 468.97 80.2344 468.84 80.039 468.872C79.8597 468.903 79.7311 469.061 79.7397 469.242Z" fill="#FDFFE7"/>
<path d="M38.3316 455.464L79.98 469.541C80.168 469.604 80.3726 469.505 80.437 469.319C80.5013 469.132 80.4005 468.928 80.2125 468.865L38.561 454.788C38.3699 454.735 38.1714 454.846 38.1182 455.036C38.0694 455.212 38.1615 455.396 38.3316 455.464Z" fill="#2D9E45"/>
<path opacity="0.9562" d="M152.168 457.423L84.9079 515.215C84.7626 515.35 84.7552 515.576 84.8912 515.72C85.0192 515.855 85.23 515.871 85.3766 515.755L152.638 457.963C152.782 457.828 152.789 457.602 152.653 457.459C152.526 457.323 152.315 457.308 152.168 457.423Z" fill="#2D9E45"/>
<path opacity="0.8177" d="M38.4382 455.484L152.394 458.048C152.592 458.039 152.745 457.871 152.736 457.675C152.727 457.498 152.589 457.354 152.412 457.337L38.4555 454.772C38.2571 454.781 38.1043 454.949 38.1142 455.145C38.1229 455.322 38.2608 455.466 38.4382 455.484Z" fill="#FDFFEF"/>
<path opacity="0.6756" d="M5.93667 618.978L54.7163 587.764C54.8759 587.647 54.9105 587.424 54.7924 587.265C54.6854 587.12 54.4857 587.078 54.3274 587.165L5.54712 618.376C5.37955 618.483 5.3307 618.704 5.43829 618.87C5.54588 619.037 5.7691 619.085 5.93667 618.978Z" fill="#F4FFFE"/>
<path d="M80.1547 469.555L152.459 458.043C152.655 458.012 152.789 457.829 152.758 457.635C152.727 457.44 152.542 457.308 152.346 457.338L80.0415 468.85C79.8455 468.881 79.712 469.064 79.7429 469.259C79.7744 469.453 79.9587 469.586 80.1547 469.555Z" fill="#FEFFE0"/>
<path opacity="0.4974" d="M5.38447 618.635L3.02529e-05 663.618L3.05176e-05 669.672L6.09927 618.718C6.12215 618.522 5.98055 618.344 5.7833 618.321C5.58605 618.299 5.40735 618.439 5.38447 618.635Z" fill="#F9FEF5"/>
<path opacity="0.9319" d="M7.35433 367.167L38.1065 455.244C38.1714 455.431 38.3767 455.529 38.5641 455.465C38.7521 455.401 38.8516 455.197 38.7867 455.011L8.03388 366.933C7.96895 366.747 7.76428 366.648 7.57631 366.712C7.38895 366.777 7.2894 366.98 7.35433 367.167Z" fill="#2D9E45"/>
<path opacity="0.8961" d="M49.2272 363.421L38.0904 455.084C38.0793 455.281 38.2308 455.45 38.4293 455.461C38.6092 455.471 38.7687 455.347 38.8027 455.171L49.9426 363.508C49.9667 363.312 49.8264 363.133 49.6285 363.109C49.4312 363.086 49.2513 363.225 49.2272 363.421Z" fill="#2D9E45"/>
<path opacity="0.8228" d="M3.02426e-05 361.117L7.46146 367.325C7.61418 367.451 7.84111 367.431 7.96911 367.28C8.09648 367.128 8.07608 366.903 7.92335 366.776L3.02018e-05 360.184L3.02426e-05 361.117Z" fill="#2D9E45"/>
<path opacity="0.8238" d="M49.2396 363.56L79.7519 469.305C79.8131 469.492 80.0159 469.595 80.2045 469.533C80.3851 469.475 80.489 469.288 80.4413 469.105L49.9303 363.365C49.8672 363.178 49.6638 363.077 49.4752 363.139C49.2984 363.197 49.1964 363.38 49.2396 363.56Z" fill="#2D9E45"/>
<path opacity="0.99" d="M3.03692e-05 364.002L7.54802 367.373C7.7329 367.444 7.94128 367.352 8.01239 367.169C8.07794 366.998 8.00374 366.806 7.8405 366.723L3.0335e-05 363.22L3.03692e-05 364.002Z" fill="#2D9E45"/>
<path opacity="0.6766" d="M2.99347e-05 350.483L49.4914 363.807C49.685 363.853 49.8785 363.735 49.9249 363.544C49.9694 363.359 49.8612 363.172 49.6782 363.118L2.99025e-05 349.746L2.99347e-05 350.483Z" fill="#2D9E45"/>
<path opacity="0.8008" d="M31.6266 734.218L8.64317 742L10.8698 742L31.8579 734.894C32.0446 734.827 32.1417 734.623 32.0743 734.437C32.0087 734.257 31.8109 734.16 31.6266 734.218Z" fill="#F6F6EC"/>
<path d="M7.72587 367.406L49.6148 363.82C49.8127 363.804 49.9599 363.631 49.9432 363.435C49.9271 363.238 49.7534 363.092 49.5555 363.108L7.6628 366.694C7.46494 366.712 7.31901 366.885 7.33632 367.081C7.35364 367.278 7.52801 367.423 7.72587 367.406Z" fill="#FFFFFE"/>
<path opacity="0.4473" d="M108.321 332.056L152.063 457.81C152.128 457.996 152.333 458.095 152.521 458.031C152.708 457.966 152.807 457.762 152.743 457.576L109.002 331.826C108.935 331.64 108.73 331.543 108.542 331.609C108.359 331.674 108.261 331.872 108.321 332.056Z" fill="#2D9E45"/>
<path opacity="0.9852" d="M3.01552e-05 359.115L7.42498 367.288C7.55854 367.434 7.78608 367.446 7.93324 367.314C8.08041 367.182 8.09216 366.956 7.95921 366.81L3.01085e-05 358.048L3.01552e-05 359.115Z" fill="#2D9E45"/>
<path opacity="0.9181" d="M3.0266e-05 361.64L7.47444 367.333C7.63768 367.445 7.86152 367.404 7.97405 367.241C8.07794 367.09 8.05135 366.886 7.91098 366.768L3.02267e-05 360.741L3.0266e-05 361.64Z" fill="#2D9E45"/>
<path opacity="0.7993" d="M2.91717e-05 333.031L49.3925 363.767C49.5613 363.872 49.7833 363.821 49.8884 363.654C49.9941 363.487 49.9428 363.267 49.774 363.161L2.91349e-05 332.189L2.91717e-05 333.031Z" fill="#2D9E45"/>
<path opacity="0.9909" d="M31.383 734.573L31.7385 742L32.4595 742L32.1015 734.539C32.0885 734.343 31.9172 734.194 31.7194 734.207C31.5258 734.219 31.3774 734.381 31.383 734.573Z" fill="#ECF9EA"/>
<path opacity="0.8605" d="M7.81338 367.385L108.781 332.278C108.968 332.212 109.067 332.008 109.001 331.822C108.935 331.636 108.73 331.538 108.542 331.604L7.5747 366.711C7.38735 366.777 7.28841 366.981 7.35458 367.167C7.42074 367.353 7.62602 367.451 7.81338 367.385Z" fill="#2D9E45"/>
<path opacity="0.3632" d="M8.96663 551.877L80.3705 469.438C80.5004 469.289 80.483 469.062 80.3322 468.934C80.1813 468.804 79.9531 468.821 79.8233 468.971L8.42002 551.411C8.28955 551.56 8.30687 551.787 8.45774 551.916C8.60861 552.044 8.83678 552.028 8.96663 551.877Z" fill="#2D9E45"/>
<path d="M49.7534 363.779L108.831 332.254C108.997 332.146 109.044 331.925 108.935 331.76C108.839 331.614 108.652 331.559 108.491 331.628L49.4133 363.15C49.2383 363.243 49.1722 363.46 49.2662 363.633C49.3602 363.808 49.5784 363.873 49.7534 363.779Z" fill="#2D9E45"/>
<path opacity="0.5391" d="M55.9794 552.047L80.4431 469.305C80.4932 469.114 80.3782 468.919 80.1859 468.869C80.0022 468.822 79.8124 468.924 79.7536 469.104L55.2893 551.847C55.2392 552.038 55.3548 552.233 55.5465 552.282C55.7308 552.33 55.92 552.227 55.9794 552.047Z" fill="#2D9E45"/>
<path opacity="0.4954" d="M156.077 367.891L152.041 457.676C152.032 457.873 152.186 458.04 152.385 458.048C152.584 458.057 152.752 457.904 152.76 457.707L156.793 367.922C156.786 367.725 156.62 367.571 156.422 367.578C156.245 367.583 156.099 367.716 156.077 367.891Z" fill="#2D9E45"/>
<path opacity="0.8746" d="M5.39246 618.753L31.3909 734.633C31.4342 734.825 31.6259 734.947 31.82 734.905C32.0136 734.862 32.136 734.671 32.0933 734.479L6.09117 618.6C6.02996 618.412 5.82714 618.309 5.63793 618.37C5.47408 618.423 5.37143 618.584 5.39246 618.753Z" fill="#F2FAFB"/>
<path opacity="0.8917" d="M31.4738 734.32L24.6307 742L25.5885 742L32.0105 734.793C32.1329 734.637 32.1051 734.413 31.9487 734.291C31.8058 734.181 31.6024 734.193 31.4738 734.32Z" fill="#2D9E45"/>
<path opacity="0.2792" d="M3.04707e-05 202.955L3.05176e-05 204.028L47.911 150.496C48.0334 150.34 48.0062 150.116 47.8497 149.995C47.7069 149.884 47.5029 149.896 47.3742 150.023L3.04707e-05 202.955Z" fill="#FFFFEA"/>
<path opacity="0.6802" d="M156.451 367.551L49.5989 363.108C49.4005 363.1 49.2335 363.254 49.2255 363.45C49.218 363.648 49.3726 363.813 49.5711 363.821L156.42 368.265C156.618 368.274 156.786 368.121 156.795 367.924C156.804 367.727 156.65 367.56 156.451 367.551Z" fill="#2D9E45"/>
<path opacity="0.9982" d="M8.33264 551.626L5.38195 618.661C5.3733 618.858 5.52726 619.025 5.72575 619.033C5.92423 619.042 6.09242 618.889 6.10108 618.692L9.05238 551.658C9.06103 551.461 8.90707 551.294 8.70858 551.285C8.50948 551.276 8.34191 551.429 8.33264 551.626Z" fill="#2D9E45"/>
<path opacity="0.7445" d="M3.04671e-05 209.539L3.05176e-05 210.694L47.9233 150.483C48.047 150.328 48.021 150.103 47.8652 149.98C47.7094 149.857 47.4825 149.882 47.3588 150.038L3.04671e-05 209.539Z" fill="#FFFFF5"/>
<path opacity="0.5618" d="M3.05176e-05 241.141L44.716 229.767C44.904 229.703 45.0042 229.501 44.9405 229.314C44.8836 229.148 44.7142 229.048 44.5398 229.077L3.04854e-05 240.405L3.05176e-05 241.141Z" fill="#FEFFED"/>
<path opacity="0.954" d="M55.3482 551.734L5.4537 618.462C5.33437 618.619 5.36652 618.844 5.52543 618.962C5.68496 619.081 5.91003 619.049 6.02937 618.891L55.9239 552.159C56.0321 551.994 55.9845 551.773 55.8182 551.666C55.6667 551.568 55.4657 551.598 55.3482 551.734Z" fill="#2D9E45"/>
<path opacity="0.9875" d="M156.651 367.622L108.878 331.656C108.713 331.547 108.489 331.591 108.379 331.755C108.277 331.906 108.306 332.108 108.445 332.225L156.219 368.191C156.384 368.3 156.607 368.256 156.717 368.092C156.818 367.941 156.79 367.74 156.651 367.622Z" fill="#2D9E45"/>
<path opacity="0.8784" d="M3.05176e-05 236.209L44.6808 229.773C44.8731 229.726 44.9918 229.533 44.9448 229.342C44.9034 229.175 44.7482 229.061 44.575 229.07L3.04861e-05 235.488L3.05176e-05 236.209Z" fill="#2D9E45"/>
<path opacity="0.9814" d="M32.534 687.549L6.07803 618.551C6.00692 618.367 5.79916 618.275 5.61366 618.345C5.42816 618.415 5.33479 618.621 5.4059 618.805L31.865 687.802C31.9528 687.978 32.1686 688.051 32.3467 687.964C32.5013 687.888 32.5798 687.714 32.534 687.549Z" fill="#F6F9FF"/>
<path opacity="0.6168" d="M44.3232 229.608L108.357 332.128C108.462 332.296 108.684 332.348 108.853 332.244C109.022 332.139 109.074 331.919 108.969 331.752L44.9323 229.235C44.8123 229.078 44.5873 229.047 44.429 229.166C44.2917 229.269 44.2472 229.455 44.3232 229.608Z" fill="#FEFFEC"/>
<path opacity="0.1745" d="M31.5691 734.244L17.3319 742L18.8258 742L31.9153 734.869C32.0854 734.767 32.141 734.548 32.039 734.379C31.9419 734.219 31.7372 734.16 31.5691 734.244Z" fill="#F1EAF2"/>
<path d="M31.8404 687.672L31.3828 734.551C31.389 734.748 31.5547 734.902 31.7532 734.896C31.9406 734.891 32.0915 734.743 32.1007 734.557L32.5589 687.678C32.5527 687.481 32.387 687.325 32.1885 687.332C32.0012 687.337 31.8491 687.486 31.8404 687.672Z" fill="#EDF7FF"/>
<path opacity="0.9962" d="M8.68926 551.999L55.6325 552.302C55.831 552.295 55.9868 552.131 55.9806 551.934C55.9744 551.748 55.826 551.598 55.6387 551.589L8.69545 551.286C8.49696 551.292 8.34114 551.457 8.34794 551.653C8.35351 551.84 8.50253 551.99 8.68926 551.999Z" fill="#2D9E45"/>
<path opacity="0.4941" d="M184.224 414.072L108.93 331.701C108.797 331.555 108.569 331.543 108.422 331.675C108.274 331.807 108.263 332.033 108.396 332.179L183.69 414.551C183.823 414.697 184.051 414.709 184.198 414.576C184.346 414.445 184.357 414.218 184.224 414.072Z" fill="#2D9E45"/>
<path opacity="0.5281" d="M5.42838 618.503L3.04536e-05 628.173L3.05176e-05 629.636L6.05475 618.849C6.13884 618.671 6.06093 618.459 5.881 618.375C5.71961 618.3 5.52669 618.355 5.42838 618.503Z" fill="#FDF3F3"/>
<path opacity="0.6999" d="M8.33683 551.706L31.8452 687.737C31.8792 687.931 32.066 688.061 32.2614 688.027C32.4568 687.993 32.5879 687.808 32.5539 687.614L9.04544 551.583C9.01081 551.389 8.8247 551.259 8.6293 551.293C8.43391 551.327 8.30282 551.512 8.33683 551.706Z" fill="#2D9E45"/>
<path opacity="0.6991" d="M32.5552 687.737L55.9894 552.006C56.0117 551.81 55.8701 551.633 55.6728 551.611C55.4916 551.591 55.3234 551.708 55.282 551.885L31.8447 687.617C31.8113 687.811 31.943 687.996 32.1397 688.03C32.3357 688.063 32.5218 687.932 32.5552 687.737Z" fill="#F6FDFF"/>
<path opacity="0.9224" d="M47.282 150.247L44.2701 229.407C44.2806 229.604 44.4494 229.755 44.6479 229.745C44.8204 229.737 44.9626 229.606 44.9855 229.436L47.9999 150.272C48.0005 150.075 47.8397 149.915 47.6412 149.914C47.4514 149.914 47.2943 150.06 47.282 150.247Z" fill="#FAFFEF"/>
<path opacity="0.7364" d="M3.00076e-05 723.237L31.6154 734.889C31.8059 734.946 32.0062 734.839 32.0637 734.65C32.1156 734.478 32.0303 734.294 31.8646 734.221L2.99743e-05 722.476L3.00076e-05 723.237Z" fill="#F5F0E9"/>
<path opacity="0.8748" d="M2.98649e-05 135.678L47.5356 150.6C47.7292 150.645 47.9227 150.526 47.9685 150.334C48.0099 150.161 47.9165 149.984 47.7496 149.92L2.98323e-05 134.932L2.98649e-05 135.678Z" fill="#2D9E45"/>
<path opacity="0.9716" d="M184.268 414.129L156.744 367.724C156.638 367.558 156.416 367.508 156.248 367.613C156.087 367.714 156.033 367.923 156.126 368.088L183.646 414.494C183.748 414.664 183.969 414.721 184.141 414.62C184.312 414.52 184.37 414.3 184.268 414.129Z" fill="#2D9E45"/>
<path opacity="0.4947" d="M2.84067e-05 181.476L44.363 229.663C44.5033 229.802 44.7309 229.802 44.8712 229.663C45.0029 229.533 45.0122 229.324 44.8929 229.181L2.83605e-05 180.419L2.84067e-05 181.476Z" fill="#2D9E45"/>
<path opacity="0.8529" d="M3.04725e-05 199.083L3.05176e-05 200.114L47.9017 150.505C48.026 150.351 48.0012 150.127 47.846 150.004C47.71 149.895 47.5146 149.9 47.3835 150.015L3.04725e-05 199.083Z" fill="#FCFFFA"/>
<path opacity="0.6482" d="M8.82747 551.973L98.8184 515.373C99.0021 515.298 99.0899 515.09 99.0151 514.907C98.9396 514.725 98.7294 514.638 98.5458 514.713L8.55479 551.312C8.37114 551.387 8.28334 551.596 8.35816 551.778C8.4336 551.96 8.64383 552.048 8.82747 551.973Z" fill="#2D9E45"/>
<path opacity="0.929" d="M98.4471 514.771L55.3994 551.677C55.2547 551.812 55.2479 552.038 55.3839 552.182C55.5119 552.317 55.7228 552.332 55.8687 552.217L98.9158 515.311C99.0605 515.176 99.0679 514.95 98.9319 514.806C98.8039 514.671 98.593 514.656 98.4471 514.771Z" fill="#2D9E45"/>
<path opacity="0.9507" d="M3.04694e-05 280.978L3.05176e-05 282.079L44.9021 229.651C45.0221 229.494 44.9912 229.271 44.8329 229.151C44.6863 229.041 44.4792 229.059 44.3537 229.192L3.04694e-05 280.978Z" fill="#2D9E45"/>
<path opacity="0.8077" d="M126.593 617.133L55.8807 551.684C55.7273 551.56 55.5004 551.582 55.3749 551.734C55.2599 551.873 55.2667 552.075 55.391 552.206L126.1 617.658C126.246 617.793 126.475 617.785 126.611 617.64C126.747 617.495 126.739 617.268 126.593 617.133Z" fill="#2D9E45"/>
<path d="M3.05176e-05 696.135L32.2875 688.019C32.4755 687.956 32.5763 687.754 32.512 687.567C32.4551 687.401 32.2857 687.301 32.1119 687.33L3.04855e-05 695.401L3.05176e-05 696.135Z" fill="#F9F0FE"/>
<path opacity="0.6346" d="M8.60058 551.99L95.2476 574.619C95.443 574.656 95.6304 574.529 95.6674 574.335C95.7002 574.161 95.5994 573.989 95.4306 573.931L8.78237 551.298C8.59007 551.248 8.39344 551.363 8.34274 551.554C8.29265 551.745 8.40766 551.94 8.60058 551.99Z" fill="#2D9E45"/>
<path opacity="0.9507" d="M3.00478e-05 219.027L44.5447 229.77C44.7401 229.804 44.9263 229.674 44.9609 229.48C44.9924 229.303 44.8854 229.13 44.7117 229.077L3.00156e-05 218.29L3.00478e-05 219.027Z" fill="#2D9E45"/>
<path opacity="0.9271" d="M95.5169 573.962L55.8125 551.636C55.6394 551.539 55.4199 551.6 55.3228 551.772C55.2251 551.944 55.2863 552.161 55.4594 552.258L95.1638 574.584C95.337 574.682 95.5559 574.62 95.6536 574.448C95.7513 574.277 95.6894 574.059 95.5169 573.962Z" fill="#2D9E45"/>
<path opacity="0.641" d="M126.131 617.111L31.9839 687.391C31.8348 687.52 31.8194 687.746 31.9499 687.894C32.0673 688.027 32.2652 688.055 32.4148 687.96L126.562 617.68C126.711 617.55 126.727 617.325 126.596 617.177C126.479 617.043 126.281 617.015 126.131 617.111Z" fill="#2D9E45"/>
<path opacity="0.9702" d="M227.905 728.269C227.715 728.325 227.606 728.523 227.662 728.713L231.665 742L232.415 742L228.352 728.51C228.296 728.321 228.095 728.213 227.905 728.269Z" fill="#2D9E45"/>
<path opacity="0.8433" d="M156.771 368.035L175.475 320.702C175.534 320.514 175.428 320.314 175.238 320.256C175.068 320.203 174.884 320.283 174.807 320.443L156.103 367.776C156.044 367.964 156.15 368.164 156.34 368.223C156.51 368.275 156.694 368.196 156.771 368.035Z" fill="#2D9E45"/>
<path opacity="0.5489" d="M156.158 367.679L93.2521 443.291C93.1254 443.443 93.147 443.668 93.3003 443.794C93.4537 443.919 93.6806 443.898 93.8074 443.746L156.713 368.133C156.839 367.981 156.817 367.756 156.664 367.631C156.511 367.505 156.284 367.527 156.158 367.679Z" fill="#2D9E45"/>
<path opacity="0.5742" d="M121.369 124.542L47.5233 149.922C47.3353 149.986 47.2364 150.19 47.3013 150.377C47.3662 150.563 47.5709 150.662 47.7589 150.597L121.605 125.217C121.792 125.152 121.891 124.949 121.827 124.762C121.762 124.576 121.557 124.477 121.369 124.542Z" fill="#FBFFF1"/>
<path opacity="0.4369" d="M227.652 728.565L225.937 742L226.662 742L228.365 728.656C228.383 728.46 228.237 728.287 228.04 728.269C227.852 728.252 227.683 728.381 227.652 728.565Z" fill="#F8FFFD"/>
<path opacity="0.7245" d="M183.681 414.081L98.4072 514.811C98.2872 514.968 98.3175 515.192 98.4752 515.311C98.6224 515.422 98.8301 515.405 98.9563 515.271L184.233 414.539C184.361 414.388 184.341 414.162 184.188 414.036C184.035 413.909 183.808 413.929 183.681 414.081Z" fill="#2D9E45"/>
<path opacity="0.837" d="M3.04745e-05 717.757L3.05176e-05 718.743L32.4471 687.935C32.5837 687.792 32.5775 687.566 32.4335 687.431C32.2999 687.305 32.0928 687.3 31.953 687.418L3.04745e-05 717.757Z" fill="#F3EEFF"/>
<path opacity="0.3794" d="M121.196 124.669L44.3386 229.213C44.2322 229.38 44.2823 229.6 44.4499 229.705C44.6014 229.801 44.8011 229.771 44.9174 229.634L121.777 125.09C121.894 124.93 121.859 124.707 121.698 124.591C121.537 124.474 121.312 124.51 121.196 124.669Z" fill="#F4FFF3"/>
<path opacity="0.1182" d="M227.654 728.671L229.944 742L230.674 742L228.364 728.551C228.33 728.357 228.145 728.226 227.949 728.259C227.753 728.292 227.622 728.476 227.654 728.671Z" fill="#F3FFFB"/>
<path opacity="0.9046" d="M184.315 414.277L175.498 320.538C175.471 320.343 175.289 320.207 175.092 320.235C174.907 320.261 174.774 320.423 174.784 320.608L183.599 414.343C183.623 414.538 183.803 414.677 184 414.653C184.188 414.63 184.326 414.465 184.315 414.277Z" fill="#2D9E45"/>
<path opacity="0.9267" d="M183.847 413.973L93.4211 443.18C93.2362 443.252 93.1465 443.46 93.2201 443.643C93.2869 443.81 93.4675 443.901 93.6418 443.857L184.068 414.651C184.252 414.578 184.343 414.37 184.269 414.187C184.202 414.021 184.022 413.929 183.847 413.973Z" fill="#2D9E45"/>
<path opacity="0.9337" d="M126.695 617.303L99.0298 514.948C98.9655 514.761 98.7614 514.662 98.5734 514.726C98.4028 514.784 98.302 514.957 98.3372 515.133L125.998 617.488C126.05 617.679 126.248 617.792 126.44 617.741C126.632 617.69 126.746 617.493 126.695 617.303Z" fill="#2D9E45"/>
<path d="M2.86304e-05 300.581L21.6658 343.558C21.7555 343.735 21.9719 343.806 22.15 343.718C22.328 343.629 22.3998 343.413 22.3107 343.237L2.85608e-05 298.989L2.86304e-05 300.581Z" fill="#2D9E45"/>
<path opacity="0.979" d="M98.3235 515.023L94.9802 574.256C94.9771 574.454 95.1354 574.616 95.3339 574.619C95.5218 574.621 95.6795 574.481 95.6974 574.295L99.0408 515.062C99.0432 514.865 98.885 514.703 98.6865 514.7C98.4991 514.697 98.3408 514.838 98.3235 515.023Z" fill="#2D9E45"/>
<path opacity="0.9735" d="M126.64 617.189L95.6322 574.067C95.5166 573.907 95.2915 573.87 95.1295 573.985C94.9675 574.1 94.9304 574.323 95.046 574.484L126.053 617.601C126.167 617.763 126.392 617.8 126.554 617.687C126.716 617.573 126.755 617.35 126.64 617.189Z" fill="#2D9E45"/>
<path opacity="0.979" d="M93.1718 443.543L98.3244 515.066C98.3393 515.264 98.5112 515.411 98.7096 515.397C98.9081 515.383 99.0571 515.212 99.0429 515.015L93.8903 443.491C93.8755 443.294 93.703 443.146 93.5051 443.16C93.3066 443.175 93.1576 443.346 93.1718 443.543Z" fill="#2D9E45"/>
<path opacity="0.8073" d="M156.261 336.86L183.616 414.431C183.682 414.617 183.887 414.715 184.075 414.649C184.262 414.584 184.361 414.38 184.295 414.194L156.941 336.627C156.876 336.44 156.671 336.341 156.483 336.406C156.296 336.47 156.196 336.674 156.261 336.86Z" fill="#2D9E45"/>
<path opacity="0.8272" d="M93.1723 443.525L94.9809 574.278C94.9834 574.475 95.146 574.633 95.3445 574.631C95.543 574.629 95.7025 574.467 95.7 574.269L93.8901 443.512C93.8809 443.316 93.7127 443.164 93.5148 443.173C93.3244 443.182 93.1741 443.335 93.1723 443.525Z" fill="#2D9E45"/>
<path opacity="0.9043" d="M93.8228 443.311L22.2797 343.192C22.1654 343.031 21.9409 342.993 21.7789 343.107C21.6169 343.22 21.5786 343.443 21.6929 343.604L93.236 443.723C93.3503 443.884 93.5748 443.922 93.7368 443.808C93.8988 443.695 93.9371 443.472 93.8228 443.311Z" fill="#2D9E45"/>
<path opacity="0.6313" d="M3.04644e-05 646.215L3.05176e-05 647.433L4.4174 641.375C4.53365 641.214 4.49655 640.992 4.33516 640.877C4.17378 640.762 3.94871 640.798 3.83308 640.958L3.04644e-05 646.215Z" fill="#FFEBE5"/>
<path opacity="0.9946" d="M2.98268e-05 327.952L21.7746 343.687C21.9354 343.803 22.1605 343.768 22.2773 343.608C22.3942 343.449 22.359 343.225 22.1982 343.109L2.97882e-05 327.068L2.98268e-05 327.952Z" fill="#2D9E45"/>
<path opacity="0.9125" d="M156.839 337.012L175.377 320.841C175.516 320.701 175.515 320.474 175.373 320.336C175.247 320.211 175.048 320.198 174.905 320.305L156.363 336.474C156.213 336.605 156.198 336.831 156.33 336.979C156.462 337.128 156.69 337.143 156.839 337.012Z" fill="#2D9E45"/>
<path opacity="0.9146" d="M87 661.059L126.611 617.634C126.731 617.477 126.699 617.253 126.541 617.134C126.403 617.03 126.209 617.04 126.081 617.157L86.4695 660.582C86.3495 660.739 86.3811 660.963 86.5394 661.081C86.6779 661.186 86.872 661.177 87 661.059Z" fill="#2D9E45"/>
<path opacity="0.7159" d="M126.063 617.174L51.3471 710.773C51.2234 710.927 51.2481 711.151 51.4033 711.274C51.5579 711.398 51.7842 711.373 51.9085 711.219L126.627 617.617C126.745 617.458 126.711 617.234 126.551 617.118C126.398 617.005 126.185 617.03 126.063 617.174Z" fill="#F7F8FF"/>
<path opacity="0.7271" d="M125.987 617.356L112.111 741.262C112.095 741.458 112.242 741.63 112.44 741.646C112.629 741.662 112.798 741.528 112.825 741.341L126.701 617.435C126.717 617.239 126.57 617.067 126.372 617.051C126.183 617.035 126.014 617.169 125.987 617.356Z" fill="#FAFBFA"/>
<path opacity="0.8128" d="M156.292 336.563L93.2206 443.337C93.1198 443.508 93.1773 443.727 93.3486 443.827C93.5205 443.927 93.7412 443.87 93.842 443.699L156.91 336.923C156.994 336.744 156.916 336.532 156.736 336.448C156.58 336.376 156.393 336.424 156.292 336.563Z" fill="#2D9E45"/>
<path opacity="0.9478" d="M175.501 320.57L175.319 288.392C175.305 288.195 175.132 288.048 174.934 288.062C174.756 288.075 174.615 288.216 174.602 288.393L174.781 320.575C174.782 320.773 174.945 320.932 175.143 320.93C175.343 320.929 175.502 320.767 175.501 320.57Z" fill="#2D9E45"/>
<path opacity="0.9204" d="M112.76 360.804L175.335 320.874C175.503 320.767 175.552 320.545 175.444 320.38C175.337 320.213 175.113 320.165 174.946 320.272L112.371 360.206C112.21 360.323 112.176 360.546 112.295 360.705C112.402 360.85 112.601 360.892 112.76 360.804Z" fill="#2D9E45"/>
<path opacity="0.966" d="M112.216 360.427L93.1817 443.439C93.1477 443.633 93.2788 443.818 93.4742 443.851C93.6553 443.882 93.8309 443.773 93.881 443.597L112.916 360.586C112.95 360.392 112.819 360.207 112.623 360.174C112.442 360.142 112.266 360.252 112.216 360.427Z" fill="#2D9E45"/>
<path opacity="0.9337" d="M87.0929 660.856L95.6964 574.31C95.7137 574.113 95.5672 573.941 95.3693 573.924C95.1745 573.907 95.002 574.048 94.981 574.241L86.3769 660.785C86.3565 660.981 86.5005 661.156 86.6984 661.176C86.8963 661.196 87.0731 661.053 87.0929 660.856Z" fill="#2D9E45"/>
<path opacity="0.8322" d="M95.1268 573.989L3.91336 640.882C3.76248 641.009 3.74393 641.235 3.87255 641.384C3.98817 641.52 4.18666 641.55 4.33815 641.455L95.5547 574.562C95.7105 574.44 95.7377 574.215 95.6146 574.061C95.4965 573.912 95.2826 573.881 95.1268 573.989Z" fill="#FEF6F5"/>
<path opacity="0.965" d="M112.632 360.156L22.0554 343.049C21.8588 343.021 21.6764 343.156 21.6479 343.351C21.6214 343.534 21.7407 343.708 21.9225 343.75L112.499 360.857C112.696 360.885 112.878 360.749 112.906 360.554C112.932 360.371 112.813 360.198 112.632 360.156Z" fill="#2D9E45"/>
<path opacity="0.6227" d="M3.0479e-05 723.153L3.05176e-05 724.037L86.9476 661.109C87.1077 660.992 87.1429 660.768 87.0255 660.609C86.908 660.45 86.6829 660.415 86.5221 660.532L3.0479e-05 723.153Z" fill="#FCEEFC"/>
<path opacity="0.9987" d="M3.0484e-05 730.998L3.05176e-05 731.768L51.7607 711.327C51.9406 711.244 52.0179 711.031 51.9332 710.852C51.8559 710.689 51.6679 710.609 51.4948 710.666L3.0484e-05 730.998Z" fill="#F0EAFE"/>
<path opacity="0.9183" d="M3.77805 641.07L3.04004e-05 654.599L3.05176e-05 657.279L4.47305 641.262C4.52623 641.072 4.41431 640.874 4.22201 640.821C4.03033 640.768 3.83122 640.879 3.77805 641.07Z" fill="#FAE9EF"/>
<path opacity="0.9563" d="M156.937 336.871L175.296 288.52C175.359 288.333 175.258 288.13 175.07 288.068C174.892 288.009 174.699 288.095 174.625 288.265L156.266 336.616C156.203 336.803 156.304 337.005 156.493 337.067C156.669 337.126 156.862 337.041 156.937 336.871Z" fill="#2D9E45"/>
<path opacity="0.9289" d="M156.431 336.429L112.394 360.19C112.219 360.285 112.154 360.502 112.248 360.676C112.344 360.849 112.562 360.914 112.737 360.819L156.775 337.057C156.95 336.963 157.015 336.746 156.92 336.572C156.825 336.398 156.606 336.334 156.431 336.429Z" fill="#2D9E45"/>
<path opacity="0.9639" d="M112.839 360.739L175.232 288.627C175.362 288.478 175.346 288.252 175.197 288.123C175.046 287.994 174.819 288.01 174.689 288.159L112.292 360.272C112.162 360.421 112.179 360.648 112.33 360.777C112.481 360.905 112.708 360.889 112.839 360.739Z" fill="#2D9E45"/>
<path d="M155.446 77.087L121.196 124.673C121.094 124.841 121.148 125.06 121.318 125.162C121.47 125.254 121.667 125.221 121.781 125.086L156.03 77.5001C156.132 77.3313 156.078 77.1117 155.908 77.0097C155.756 76.9182 155.559 76.951 155.446 77.087Z" fill="#2D9E45"/>
<path opacity="0.8903" d="M51.4644 710.678C51.2875 710.767 51.217 710.983 51.3073 711.158L67.2424 742L68.0505 742L51.9479 710.834C51.8576 710.659 51.6412 710.589 51.4644 710.678Z" fill="#F7EFFE"/>
<path opacity="0.5173" d="M2.82549e-05 392.112L93.3554 443.831C93.5291 443.927 93.748 443.864 93.8445 443.691C93.9403 443.519 93.8778 443.302 93.7041 443.206L2.82192e-05 391.294L2.82549e-05 392.112Z" fill="#F9FEFF"/>
<path opacity="0.7386" d="M174.921 320.291L133.48 352.15C133.331 352.282 133.319 352.508 133.451 352.654C133.57 352.786 133.768 352.812 133.917 352.715L175.362 320.854C175.514 320.729 175.537 320.505 175.411 320.352C175.289 320.206 175.074 320.179 174.921 320.291Z" fill="#2D9E45"/>
<path opacity="0.9564" d="M21.6856 343.202L3.04607e-05 376.164L3.05176e-05 377.467L22.2872 343.593C22.3961 343.429 22.3497 343.207 22.184 343.099C22.0176 342.991 21.7944 343.037 21.6856 343.202Z" fill="#2D9E45"/>
<path opacity="0.9485" d="M86.4394 660.616L51.3323 710.79C51.2191 710.952 51.2593 711.175 51.4219 711.287C51.5852 711.4 51.809 711.36 51.9228 711.198L87.0299 661.024C87.1436 660.862 87.1034 660.64 86.9402 660.527C86.777 660.415 86.5531 660.454 86.4394 660.616Z" fill="#F7F2FF"/>
<path opacity="0.943" d="M86.3929 660.927L112.125 741.412C112.185 741.6 112.388 741.704 112.577 741.644C112.767 741.584 112.872 741.383 112.811 741.195L87.0768 660.714C87.002 660.532 86.7923 660.443 86.6087 660.518C86.4455 660.583 86.3539 660.756 86.3929 660.927Z" fill="#FAF4F7"/>
<path opacity="0.9946" d="M51.4653 711.313L112.307 741.62C112.489 741.701 112.701 741.619 112.782 741.439C112.857 741.27 112.791 741.072 112.628 740.982L51.7899 710.674C51.6118 710.586 51.3954 710.657 51.3057 710.833C51.2161 711.01 51.2878 711.225 51.4653 711.313Z" fill="#2D9E45"/>
<path opacity="0.9485" d="M86.8182 660.472L4.20887 640.819C4.01471 640.773 3.82055 640.892 3.7748 641.084C3.72842 641.276 3.84838 641.469 4.04192 641.515L86.6512 661.169C86.8448 661.214 87.0389 661.096 87.0853 660.903C87.1311 660.711 87.0117 660.518 86.8182 660.472Z" fill="#FFF1F4"/>
<path d="M51.9259 710.794L4.42371 640.967C4.31303 640.803 4.08919 640.759 3.9241 640.87C3.75962 640.98 3.71634 641.203 3.82702 641.366L51.3292 711.194C51.4405 711.358 51.6637 711.4 51.8288 711.29C51.9933 711.18 52.0372 710.958 51.9259 710.794Z" fill="#F5EDF7"/>
<path opacity="0.8815" d="M85.941 263.02L156.341 336.987C156.489 337.117 156.717 337.104 156.848 336.956C156.963 336.827 156.97 336.635 156.862 336.5L86.4654 262.528C86.3287 262.385 86.1006 262.378 85.9559 262.514C85.8112 262.65 85.8044 262.876 85.941 263.02Z" fill="#2D9E45"/>
<path opacity="0.9629" d="M51.5325 710.651C51.3402 710.703 51.227 710.9 51.2802 711.091L59.9066 742L60.6548 742L51.9752 710.902C51.9227 710.71 51.7242 710.599 51.5325 710.651Z" fill="#2D9E45"/>
<path opacity="0.9451" d="M86.1022 263.117L174.862 288.737C175.053 288.79 175.252 288.681 175.307 288.49C175.362 288.301 175.251 288.103 175.06 288.049L86.3038 262.432C86.1115 262.382 85.9155 262.496 85.8654 262.687C85.8172 262.87 85.9211 263.058 86.1022 263.117Z" fill="#2D9E45"/>
<path opacity="0.9111" d="M85.8562 262.865L112.219 360.598C112.283 360.784 112.488 360.884 112.675 360.82C112.846 360.763 112.947 360.588 112.911 360.413L86.5493 262.683C86.4856 262.497 86.281 262.398 86.093 262.461C85.9242 262.519 85.8234 262.691 85.8562 262.865Z" fill="#2D9E45"/>
<path opacity="0.6389" d="M228.35 104.874L121.421 124.529C121.226 124.565 121.097 124.751 121.133 124.944C121.169 125.138 121.357 125.266 121.552 125.231L228.481 105.576C228.676 105.54 228.805 105.354 228.769 105.16C228.733 104.967 228.546 104.839 228.35 104.874Z" fill="#2D9E45"/>
<path opacity="0.9605" d="M156.399 336.449L133.495 352.137C133.337 352.257 133.308 352.48 133.428 352.637C133.54 352.782 133.744 352.819 133.9 352.725L156.807 337.036C156.971 336.924 157.012 336.702 156.899 336.54C156.786 336.378 156.562 336.337 156.399 336.449Z" fill="#2D9E45"/>
<path opacity="0.9665" d="M174.657 288.201L133.394 352.239C133.287 352.406 133.336 352.627 133.504 352.734C133.671 352.841 133.895 352.792 134.002 352.625L175.265 288.584C175.371 288.417 175.322 288.196 175.154 288.091C174.986 287.985 174.764 288.034 174.657 288.201Z" fill="#2D9E45"/>
<path opacity="0.7104" d="M81.746 86.7584L121.237 125.133C121.385 125.264 121.613 125.25 121.744 125.102C121.867 124.966 121.865 124.759 121.74 124.624L82.2487 86.2495C82.1003 86.119 81.8728 86.1332 81.7417 86.281C81.6199 86.4176 81.6217 86.6242 81.746 86.7584Z" fill="#F6FFEC"/>
<path opacity="0.9684" d="M112.693 360.838L133.827 352.764C134.006 352.678 134.079 352.464 133.992 352.287C133.915 352.131 133.737 352.053 133.568 352.101L112.434 360.172C112.248 360.243 112.156 360.45 112.228 360.634C112.299 360.818 112.507 360.91 112.693 360.838Z" fill="#2D9E45"/>
<path opacity="0.69" d="M51.3365 710.784C51.2196 710.944 51.2548 711.167 51.4156 711.283L94.0225 742L95.2455 742L51.8392 710.706C51.6784 710.589 51.4533 710.625 51.3365 710.784Z" fill="#2D9E45"/>
<path opacity="0.8442" d="M168.231 661.99L86.7396 660.465C86.5417 660.478 86.3921 660.648 86.4051 660.845C86.4168 661.018 86.5523 661.158 86.726 661.176L168.218 662.704C168.416 662.707 168.58 662.55 168.584 662.353C168.588 662.156 168.429 661.993 168.231 661.99Z" fill="#FEF7FF"/>
<path opacity="0.547" d="M168.087 662.017L51.4882 710.667C51.3046 710.743 51.2186 710.953 51.2959 711.135C51.3732 711.317 51.5847 711.403 51.7677 711.326L168.363 662.677C168.547 662.601 168.633 662.392 168.557 662.21C168.481 662.027 168.27 661.941 168.087 662.017Z" fill="#F2F3FF"/>
<path opacity="0.7418" d="M167.93 662.14L112.174 741.097C112.073 741.267 112.129 741.486 112.3 741.586C112.452 741.676 112.648 741.642 112.761 741.506L168.518 662.553C168.633 662.392 168.595 662.169 168.432 662.055C168.27 661.941 168.045 661.98 167.93 662.14Z" fill="#F5F6FD"/>
<path opacity="0.9592" d="M85.8852 262.94L133.378 352.599C133.471 352.774 133.689 352.842 133.865 352.75C134.041 352.659 134.11 352.442 134.018 352.267L86.5209 262.609C86.4176 262.441 86.1969 262.387 86.0268 262.489C85.8722 262.582 85.8116 262.775 85.8852 262.94Z" fill="#2D9E45"/>
<path opacity="0.9961" d="M228.544 104.892L155.868 76.9604C155.682 76.8886 155.474 76.9801 155.402 77.1644C155.33 77.348 155.422 77.5552 155.607 77.6269L228.288 105.558C228.476 105.62 228.68 105.519 228.742 105.332C228.801 105.156 228.715 104.966 228.544 104.892Z" fill="#2D9E45"/>
<path opacity="0.7591" d="M3.04854e-05 385.559L3.05176e-05 386.296L133.786 352.779C133.979 352.731 134.096 352.536 134.047 352.345C133.998 352.153 133.802 352.038 133.609 352.086L3.04854e-05 385.559Z" fill="#2D9E45"/>
<path opacity="0.9963" d="M155.691 76.9386L81.9522 86.1493C81.7549 86.1746 81.6152 86.354 81.6405 86.5494C81.6659 86.7454 81.8464 86.8839 82.0437 86.8586L155.784 77.6479C155.981 77.6232 156.12 77.4438 156.095 77.2478C156.069 77.0518 155.889 76.9139 155.691 76.9386Z" fill="#FFFFF4"/>
<path opacity="0.9446" d="M155.412 77.1411L118.608 153.734C118.534 153.917 118.623 154.125 118.807 154.198C118.975 154.266 119.168 154.198 119.256 154.041L156.063 77.4466C156.148 77.2679 156.071 77.0552 155.892 76.9705C155.712 76.8857 155.497 76.9624 155.412 77.1411Z" fill="#2D9E45"/>
<path opacity="0.8769" d="M86.5464 262.877L119.275 153.989C119.319 153.797 119.197 153.607 119.003 153.563C118.829 153.525 118.652 153.62 118.589 153.785L85.8594 262.672C85.8168 262.864 85.9386 263.055 86.1321 263.098C86.3065 263.136 86.4827 263.042 86.5464 262.877Z" fill="#2D9E45"/>
<path opacity="0.8359" d="M150.154 160.182L156.097 77.3202C156.111 77.1229 155.961 76.9516 155.763 76.938C155.564 76.9244 155.392 77.0734 155.378 77.2707L149.438 160.132C149.437 160.329 149.596 160.49 149.795 160.492C149.976 160.493 150.13 160.361 150.154 160.182Z" fill="#2D9E45"/>
<path opacity="0.9247" d="M85.9404 263.016L100.785 278.809C100.924 278.955 101.158 278.96 101.304 278.821C101.449 278.685 101.457 278.458 101.322 278.312L86.4653 262.528C86.3293 262.384 86.1018 262.377 85.9571 262.511C85.8124 262.646 85.8043 262.872 85.9404 263.016Z" fill="#2D9E45"/>
<path opacity="0.7807" d="M167.864 662.346L167.848 742L168.569 742L168.586 662.348C168.586 662.15 168.425 661.99 168.226 661.989C168.027 661.988 167.865 662.148 167.864 662.346Z" fill="#F5F5FF"/>
<path opacity="0.7397" d="M228.463 104.872L82.0434 86.151C81.8456 86.1324 81.6706 86.2771 81.6526 86.4731C81.6353 86.6598 81.7658 86.828 81.9519 86.8583L228.368 105.58C228.566 105.606 228.746 105.468 228.773 105.272C228.799 105.077 228.66 104.898 228.463 104.872Z" fill="#2D9E45"/>
<path opacity="0.9146" d="M228.268 104.901L118.783 153.559C118.602 153.64 118.522 153.853 118.603 154.032C118.685 154.213 118.899 154.293 119.081 154.212L228.565 105.55C228.74 105.457 228.806 105.241 228.713 105.067C228.628 104.908 228.437 104.837 228.268 104.901Z" fill="#2D9E45"/>
<path opacity="0.8457" d="M86.2663 262.424L37.7568 253.75C37.5614 253.715 37.3735 253.843 37.3382 254.038C37.3024 254.232 37.4322 254.418 37.6282 254.454L86.1402 263.124C86.338 263.14 86.5112 262.993 86.5272 262.797C86.5415 262.627 86.432 262.47 86.2663 262.424Z" fill="#2D9E45"/>
<path opacity="0.9606" d="M100.717 278.706L133.37 352.575C133.468 352.746 133.687 352.806 133.86 352.709C134.008 352.626 134.077 352.452 134.025 352.291L101.389 278.416C101.301 278.235 101.081 278.159 100.899 278.247C100.728 278.33 100.648 278.529 100.717 278.706Z" fill="#2D9E45"/>
<path d="M119.252 153.714L82.316 86.335C82.2122 86.1669 81.9896 86.1137 81.8201 86.2176C81.6631 86.3128 81.6037 86.5106 81.6829 86.6764L118.612 154.06C118.708 154.235 118.929 154.3 119.106 154.205C119.283 154.109 119.348 153.89 119.252 153.714Z" fill="#FFFFF3"/>
<path opacity="0.9543" d="M150.004 160.447L228.624 105.517C228.786 105.402 228.824 105.18 228.71 105.019C228.595 104.858 228.37 104.82 228.208 104.934L149.588 159.864C149.426 159.978 149.388 160.201 149.502 160.362C149.617 160.522 149.842 160.561 150.004 160.447Z" fill="#2D9E45"/>
<path opacity="0.5221" d="M18.3669 -0.000144958L81.7089 86.7149C81.8276 86.8726 82.0527 86.9041 82.2116 86.786C82.3668 86.671 82.4021 86.454 82.2908 86.2957L19.2548 -0.000144997L18.3669 -0.000144958Z" fill="#FBFFED"/>
<path d="M163.569 391.929L133.987 352.222C133.858 352.072 133.632 352.054 133.48 352.181C133.344 352.296 133.314 352.493 133.409 352.643L162.972 392.365C163.097 392.526 163.33 392.555 163.492 392.431C163.649 392.311 163.683 392.09 163.569 391.929Z" fill="#2D9E45"/>
<path opacity="0.6133" d="M2.98561e-05 337.654L133.656 352.786C133.853 352.809 134.032 352.668 134.055 352.472C134.078 352.276 133.937 352.099 133.739 352.076L2.98247e-05 336.936L2.98561e-05 337.654Z" fill="#2D9E45"/>
<path opacity="0.4888" d="M2.57841e-05 410.362L36.0748 518.422C36.1459 518.606 36.3537 518.698 36.5392 518.628C36.7136 518.562 36.8082 518.374 36.7562 518.196L2.56851e-05 408.097L2.57841e-05 410.362Z" fill="#FFF2FF"/>
<path opacity="0.1354" d="M283.168 666.865L215.488 742L216.453 742L283.705 667.341C283.837 667.194 283.824 666.968 283.676 666.837C283.527 666.705 283.3 666.718 283.168 666.865Z" fill="#FDFAF6"/>
<path opacity="0.583" d="M37.4328 254.352L133.438 352.681C133.577 352.823 133.806 352.828 133.949 352.691C134.092 352.553 134.096 352.326 133.958 352.183L37.9491 253.856C37.8087 253.716 37.5812 253.715 37.4408 253.854C37.3029 253.991 37.2992 254.212 37.4328 254.352Z" fill="#2D9E45"/>
<path opacity="0.9877" d="M150.066 159.912L82.263 86.265C82.1183 86.1296 81.8902 86.1364 81.7541 86.2799C81.6311 86.4085 81.6224 86.6076 81.7331 86.7467L149.527 160.403C149.674 160.54 149.906 160.534 150.045 160.388C150.17 160.256 150.179 160.054 150.066 159.912Z" fill="#2D9E45"/>
<path opacity="0.99" d="M149.869 159.8L119.005 153.532C118.808 153.492 118.616 153.618 118.576 153.813C118.535 154.008 118.662 154.199 118.858 154.239L149.724 160.514C149.925 160.543 150.111 160.404 150.14 160.205C150.166 160.022 150.05 159.847 149.869 159.8Z" fill="#2D9E45"/>
<path opacity="0.8888" d="M118.577 153.835L100.698 278.51C100.677 278.706 100.819 278.881 101.017 278.903C101.204 278.923 101.375 278.796 101.409 278.612L119.287 153.937C119.309 153.741 119.166 153.564 118.969 153.543C118.781 153.523 118.61 153.65 118.577 153.835Z" fill="#2D9E45"/>
<path opacity="0.9219" d="M168.211 662.706L283.42 667.461C283.619 667.469 283.787 667.317 283.796 667.119C283.804 666.922 283.65 666.755 283.452 666.746L168.239 661.992C168.04 661.984 167.873 662.137 167.865 662.335C167.857 662.532 168.012 662.698 168.211 662.706Z" fill="#FFFDFD"/>
<path opacity="0.8904" d="M149.465 160.022L100.718 278.426C100.643 278.609 100.731 278.817 100.916 278.892C101.099 278.967 101.31 278.879 101.385 278.697L150.128 160.293C150.189 160.105 150.086 159.904 149.898 159.843C149.729 159.789 149.545 159.865 149.465 160.022Z" fill="#2D9E45"/>
<path opacity="0.6107" d="M2.87227e-05 45.8012L81.8358 86.8251C82.0139 86.9142 82.2303 86.8431 82.32 86.6668C82.409 86.49 82.3379 86.2754 82.1598 86.1864L2.86878e-05 45.0029L2.87227e-05 45.8012Z" fill="#FCFFEE"/>
<path opacity="0.9328" d="M168.461 662.618L237.348 603.131C237.491 602.991 237.493 602.761 237.35 602.619C237.222 602.49 237.016 602.476 236.87 602.586L167.989 662.079C167.839 662.209 167.823 662.434 167.954 662.583C168.084 662.732 168.312 662.748 168.461 662.618Z" fill="#FFFBFA"/>
<path opacity="0.7441" d="M167.949 662.119C167.822 662.271 167.844 662.497 167.997 662.622L265.105 742L266.238 742L168.456 662.071C168.302 661.945 168.075 661.967 167.949 662.119Z" fill="#F2F9FF"/>
<path opacity="0.9038" d="M100.736 278.731L162.955 392.317C163.062 392.483 163.284 392.533 163.451 392.427C163.603 392.332 163.661 392.139 163.586 391.977L101.37 278.39C101.275 278.216 101.057 278.152 100.882 278.246C100.707 278.34 100.642 278.557 100.736 278.731Z" fill="#2D9E45"/>
<path opacity="0.9271" d="M3.04817e-05 335.214L3.05176e-05 336.035L101.232 278.87C101.4 278.766 101.452 278.546 101.347 278.379C101.247 278.221 101.042 278.165 100.875 278.251L3.04817e-05 335.214Z" fill="#FAFBFF"/>
<path opacity="0.9621" d="M37.5575 254.449L100.919 278.901C101.113 278.959 101.318 278.851 101.378 278.658C101.431 278.485 101.348 278.299 101.184 278.222L37.8277 253.758C37.6329 253.692 37.4202 253.795 37.3534 253.989C37.2904 254.172 37.3788 254.371 37.5575 254.449Z" fill="#2D9E45"/>
<path opacity="0.2842" d="M192.52 513.808L167.872 662.29C167.839 662.485 167.972 662.668 168.168 662.7C168.364 662.733 168.55 662.601 168.582 662.406L193.227 513.926C193.243 513.729 193.096 513.557 192.898 513.541C192.723 513.526 192.563 513.639 192.52 513.808Z" fill="#2D9E45"/>
<path opacity="0.7599" d="M3.04846e-05 115.019L3.05176e-05 115.775L82.1171 86.841C82.3045 86.7754 82.4034 86.5714 82.3373 86.3853C82.2711 86.1992 82.0658 86.1015 81.8785 86.167L3.04846e-05 115.019Z" fill="#F9FFE2"/>
<path opacity="0.5338" d="M2.81443e-05 338.212L163.157 392.486C163.345 392.549 163.549 392.448 163.612 392.26C163.675 392.073 163.574 391.87 163.385 391.807L2.81115e-05 337.46L2.81443e-05 338.212Z" fill="#FCFBFF"/>
<path opacity="0.3156" d="M289.002 285.84L150.04 159.891C149.893 159.759 149.666 159.769 149.532 159.915C149.398 160.06 149.409 160.286 149.555 160.419L288.517 286.367C288.664 286.5 288.891 286.49 289.025 286.344C289.159 286.198 289.148 285.972 289.002 285.84Z" fill="#2D9E45"/>
<path d="M37.3541 253.942L3.04429e-05 331.072L3.05176e-05 332.78L38.0269 254.262C38.1054 254.073 38.0151 253.856 37.8247 253.778C37.6485 253.705 37.4463 253.776 37.3541 253.942Z" fill="#2D9E45"/>
<path opacity="0.4303" d="M36.6683 518.56L163.527 392.398C163.667 392.258 163.665 392.032 163.523 391.893C163.383 391.756 163.157 391.757 163.017 391.895L36.1588 518.057C36.0203 518.198 36.0234 518.424 36.1662 518.562C36.306 518.697 36.5292 518.696 36.6683 518.56Z" fill="#2D9E45"/>
<path d="M283.739 666.888L237.415 602.642C237.294 602.475 237.059 602.436 236.89 602.556C236.721 602.676 236.682 602.91 236.803 603.078L283.137 667.318C283.26 667.48 283.492 667.514 283.656 667.392C283.815 667.273 283.852 667.051 283.739 666.888Z" fill="#FFFFE8"/>
<path opacity="0.4144" d="M2.31552e-05 350.234L36.0643 518.384C36.1057 518.576 36.2974 518.699 36.4916 518.657C36.6857 518.616 36.8088 518.426 36.7667 518.233L2.30054e-05 346.806L2.31552e-05 350.234Z" fill="#2D9E45"/>
<path opacity="0.9747" d="M283.064 667.092L280.834 742L281.584 742L283.808 667.115C283.814 666.911 283.653 666.741 283.448 666.734C283.242 666.728 283.071 666.888 283.064 667.092Z" fill="#F9FEFA"/>
<path opacity="0.6199" d="M288.525 285.832L163.039 391.873C162.888 392 162.869 392.226 162.998 392.376C163.127 392.526 163.354 392.544 163.505 392.416L288.991 286.376C289.143 286.248 289.161 286.022 289.032 285.872C288.903 285.722 288.676 285.704 288.525 285.832Z" fill="#2D9E45"/>
<path opacity="0.9652" d="M176.166 132.139L118.804 153.552C118.619 153.622 118.525 153.828 118.596 154.012C118.666 154.197 118.874 154.289 119.059 154.219L176.43 132.83C176.623 132.758 176.719 132.544 176.646 132.354C176.573 132.163 176.359 132.067 176.166 132.139Z" fill="#2D9E45"/>
<path opacity="0.7464" d="M237.002 602.536C236.825 602.595 236.722 602.778 236.766 602.958L276.887 742L277.634 742L237.456 602.762C237.394 602.575 237.19 602.474 237.002 602.536Z" fill="#FCFCF7"/>
<path opacity="0.8065" d="M257.457 232.173L149.998 159.86C149.833 159.749 149.61 159.792 149.498 159.955C149.387 160.119 149.43 160.341 149.595 160.451L257.055 232.765C257.219 232.875 257.443 232.832 257.554 232.669C257.665 232.505 257.622 232.283 257.457 232.173Z" fill="#2D9E45"/>
<path opacity="0.5059" d="M257.152 232.129L100.95 278.219C100.759 278.275 100.65 278.473 100.707 278.662C100.764 278.852 100.963 278.959 101.154 278.903L257.357 232.813C257.547 232.757 257.656 232.558 257.599 232.37C257.543 232.181 257.343 232.073 257.152 232.129Z" fill="#2D9E45"/>
<path opacity="0.8" d="M271.645 162.626L149.803 159.798C149.604 159.795 149.44 159.952 149.436 160.149C149.432 160.346 149.591 160.509 149.789 160.512L271.628 163.338C271.826 163.328 271.98 163.161 271.971 162.964C271.962 162.787 271.823 162.643 271.645 162.626Z" fill="#2D9E45"/>
<path opacity="0.9179" d="M193.221 513.782L163.62 392.061C163.573 391.87 163.378 391.752 163.185 391.798C162.992 391.845 162.874 392.038 162.92 392.229L192.525 513.95C192.588 514.136 192.792 514.237 192.98 514.174C193.145 514.118 193.247 513.953 193.221 513.782Z" fill="#2D9E45"/>
<path opacity="0.3345" d="M192.562 514.048L283.127 667.284C283.238 667.446 283.461 667.489 283.626 667.379C283.775 667.278 283.826 667.083 283.746 666.923L193.185 513.687C193.085 513.516 192.864 513.458 192.692 513.558C192.52 513.657 192.462 513.877 192.562 514.048Z" fill="#FFFEFE"/>
<path opacity="0.9885" d="M176.021 132.221L149.53 159.904C149.396 160.056 149.411 160.286 149.564 160.419C149.707 160.545 149.924 160.539 150.062 160.407L176.575 132.748C176.716 132.591 176.702 132.349 176.543 132.21C176.392 132.077 176.165 132.082 176.021 132.221Z" fill="#2D9E45"/>
<path opacity="0.8648" d="M2.67696e-05 168.707L37.3616 254.246C37.4457 254.425 37.6602 254.501 37.8395 254.417C38.0114 254.337 38.0906 254.137 38.0201 253.962L2.66913e-05 166.915L2.67696e-05 168.707Z" fill="#FFFAF3"/>
<path opacity="0.6956" d="M192.861 513.508L36.4058 517.952C36.2085 517.97 36.0626 518.144 36.0812 518.341C36.0979 518.519 36.245 518.658 36.4256 518.665L192.885 514.223C193.084 514.217 193.24 514.051 193.233 513.854C193.227 513.656 193.061 513.502 192.861 513.508Z" fill="#2D9E45"/>
<path opacity="0.9757" d="M192.53 514.032L236.775 603.026C236.867 603.21 237.092 603.285 237.278 603.194C237.463 603.103 237.539 602.88 237.448 602.695L193.213 513.7C193.114 513.516 192.883 513.446 192.698 513.545C192.522 513.639 192.448 513.851 192.53 514.032Z" fill="#FFFDFB"/>
<path opacity="0.2086" d="M283.098 666.984L256.73 742L257.491 742L283.777 667.219C283.834 667.03 283.726 666.831 283.537 666.774C283.358 666.72 283.168 666.811 283.098 666.984Z" fill="#FBF7EE"/>
<path opacity="0.9606" d="M289.082 285.916L257.587 232.279C257.477 232.1 257.24 232.045 257.06 232.155C256.886 232.261 256.827 232.484 256.926 232.662L288.433 286.292C288.538 286.47 288.768 286.53 288.948 286.426C289.127 286.322 289.187 286.093 289.082 285.916Z" fill="#2D9E45"/>
<path opacity="0.8503" d="M271.273 163.031L288.403 286.152C288.431 286.348 288.612 286.484 288.809 286.457C289.006 286.43 289.143 286.25 289.116 286.055L272.001 162.933C271.974 162.734 271.789 162.594 271.588 162.621C271.387 162.648 271.246 162.831 271.273 163.031Z" fill="#2D9E45"/>
<path opacity="0.3149" d="M289.049 285.893L176.588 132.274C176.456 132.126 176.228 132.112 176.08 132.244C175.951 132.357 175.922 132.545 176.009 132.692L288.467 286.315C288.585 286.474 288.81 286.509 288.971 286.392C289.131 286.276 289.166 286.052 289.049 285.893Z" fill="#2D9E45"/>
<path opacity="0.654" d="M160.482 49.0606L149.44 160.121C149.436 160.318 149.594 160.481 149.793 160.485C149.968 160.488 150.121 160.365 150.153 160.194L161.195 49.1329C161.199 48.9362 161.041 48.773 160.842 48.7693C160.667 48.7656 160.514 48.8893 160.482 49.0606Z" fill="#2D9E45"/>
<path opacity="0.1715" d="M283.256 666.794L152.863 742L154.296 742L283.616 667.412C283.789 667.314 283.847 667.096 283.748 666.924C283.648 666.754 283.429 666.695 283.256 666.794Z" fill="#FFF4E9"/>
<path opacity="0.9301" d="M271.26 162.906L256.881 232.395C256.848 232.602 256.991 232.797 257.2 232.83C257.396 232.861 257.583 232.738 257.632 232.547L272.014 163.058C272.056 162.851 271.922 162.65 271.714 162.608C271.506 162.566 271.303 162.699 271.26 162.906Z" fill="#2D9E45"/>
<path opacity="0.9637" d="M257.543 232.24L176.587 132.252C176.453 132.098 176.219 132.08 176.064 132.213C175.915 132.339 175.892 132.558 176.009 132.713L256.969 232.701C257.107 232.85 257.341 232.86 257.492 232.723C257.629 232.598 257.651 232.391 257.543 232.24Z" fill="#2D9E45"/>
<path opacity="0.9287" d="M271.755 162.62L176.415 132.121C176.213 132.057 175.996 132.167 175.932 132.368C175.868 132.569 175.979 132.784 176.181 132.848L271.52 163.343C271.725 163.394 271.934 163.27 271.985 163.065C272.031 162.881 271.933 162.69 271.755 162.62Z" fill="#2D9E45"/>
<path opacity="0.366" d="M236.809 602.666L146.379 742L147.234 742L237.413 603.054C237.521 602.888 237.473 602.667 237.306 602.56C237.139 602.453 236.916 602.5 236.809 602.666Z" fill="#FFF3E6"/>
<path opacity="0.0383" d="M213.161 541.171L163.611 392.034C163.539 391.851 163.331 391.76 163.146 391.832C162.975 391.898 162.882 392.081 162.93 392.257L212.479 541.394C212.552 541.577 212.76 541.668 212.945 541.596C213.116 541.53 213.209 541.347 213.161 541.171Z" fill="#FFFCFE"/>
<path opacity="0.5733" d="M289.108 286.184L320.006 150.395C320.05 150.202 319.927 150.01 319.733 149.967C319.539 149.923 319.346 150.044 319.302 150.237L288.408 286.025C288.374 286.219 288.505 286.404 288.701 286.438C288.882 286.469 289.058 286.359 289.108 286.184Z" fill="#2D9E45"/>
<path opacity="0.7501" d="M212.486 541.411L236.775 602.989C236.861 603.166 237.076 603.241 237.255 603.156C237.415 603.079 237.496 602.897 237.443 602.729L213.153 541.151C213.067 540.973 212.853 540.898 212.673 540.984C212.513 541.06 212.434 541.242 212.486 541.411Z" fill="#FFFAF6"/>
<path opacity="0.6746" d="M271.897 162.735L161.097 48.8503C160.948 48.7186 160.722 48.7315 160.589 48.8786C160.471 49.0103 160.467 49.2076 160.58 49.3437L271.377 163.229C271.514 163.371 271.742 163.376 271.886 163.24C272.03 163.103 272.034 162.877 271.897 162.735Z" fill="#2D9E45"/>
<path opacity="0.9985" d="M176.676 132.413L161.225 49.0256C161.167 48.8172 160.95 48.6948 160.739 48.7523C160.555 48.803 160.433 48.9786 160.451 49.1684L175.92 132.552C175.958 132.76 176.159 132.897 176.368 132.859C176.577 132.82 176.715 132.621 176.676 132.413Z" fill="#2D9E45"/>
<path opacity="0.7333" d="M289.102 285.999L276.847 246.197C276.772 246.015 276.563 245.927 276.379 246.001C276.218 246.066 276.127 246.237 276.163 246.406L288.414 286.209C288.472 286.397 288.674 286.504 288.864 286.446C289.054 286.387 289.161 286.188 289.102 285.999Z" fill="#2D9E45"/>
<path opacity="0.9751" d="M213.144 541.046L193.18 513.644C193.046 513.483 192.807 513.46 192.645 513.593C192.497 513.714 192.463 513.926 192.566 514.086L212.495 541.514C212.64 541.681 212.894 541.701 213.062 541.557C213.212 541.43 213.246 541.214 213.144 541.046Z" fill="#FFF9FF"/>
<path opacity="0.9813" d="M257.557 232.696L319.969 150.551C320.1 150.378 320.066 150.134 319.892 150.004C319.719 149.874 319.472 149.908 319.342 150.081L256.955 232.246C256.83 232.411 256.864 232.646 257.03 232.77C257.196 232.894 257.433 232.861 257.557 232.696Z" fill="#2D9E45"/>
<path opacity="0.9301" d="M271.737 163.35L319.757 150.7C319.969 150.64 320.092 150.42 320.032 150.209C319.972 150.004 319.76 149.881 319.551 149.932L271.537 162.614C271.332 162.669 271.211 162.878 271.266 163.081C271.321 163.284 271.532 163.405 271.737 163.35Z" fill="#2D9E45"/>
<path opacity="0.8036" d="M176.252 132.839L319.608 150.669C319.806 150.687 319.981 150.542 319.998 150.345C320.015 150.16 319.885 149.993 319.7 149.962L176.344 132.131C176.146 132.113 175.971 132.257 175.953 132.453C175.936 132.64 176.067 132.808 176.252 132.839Z" fill="#2D9E45"/>
<path opacity="0.5369" d="M3.01038e-05 124.328L118.709 133.794C118.907 133.81 119.081 133.664 119.097 133.467C119.113 133.27 118.965 133.098 118.767 133.082L3.00724e-05 123.611L3.01038e-05 124.328Z" fill="#FFFCF4"/>
<path opacity="0.9402" d="M118.747 133.839L176.304 132.862C176.515 132.846 176.673 132.664 176.657 132.455C176.643 132.263 176.485 132.112 176.291 132.105L118.733 133.038C118.511 133.042 118.334 133.225 118.337 133.445C118.341 133.666 118.525 133.842 118.747 133.839Z" fill="#2D9E45"/>
<path opacity="0.9722" d="M257.031 232.777L276.267 246.626C276.457 246.744 276.707 246.687 276.825 246.498C276.933 246.328 276.898 246.106 276.743 245.977L257.481 232.161C257.309 232.038 257.07 232.076 256.946 232.246C256.822 232.416 256.86 232.654 257.031 232.777Z" fill="#2D9E45"/>
<path opacity="0.8233" d="M271.279 163.004L276.136 246.324C276.155 246.526 276.336 246.674 276.538 246.655C276.732 246.637 276.879 246.473 276.873 246.279L271.995 162.96C271.969 162.764 271.79 162.626 271.593 162.651C271.414 162.674 271.279 162.825 271.279 163.004Z" fill="#2D9E45"/>
<path opacity="0.5257" d="M160.645 49.3964L319.46 150.618C319.627 150.724 319.85 150.676 319.959 150.509C320.066 150.342 320.017 150.121 319.849 150.014L161.031 48.7972C160.857 48.7032 160.639 48.7676 160.544 48.9407C160.46 49.0965 160.502 49.2906 160.645 49.3964Z" fill="#2D9E45"/>
<path opacity="0.9478" d="M119.104 133.618L161.192 49.2715C161.287 49.0767 161.205 48.8424 161.009 48.7478C160.815 48.6551 160.583 48.7323 160.485 48.9222L118.377 133.262C118.278 133.461 118.36 133.702 118.561 133.801C118.762 133.9 119.005 133.818 119.104 133.618Z" fill="#2D9E45"/>
<path opacity="0.9745" d="M276.876 246.464L320.022 150.479C320.112 150.279 320.021 150.044 319.819 149.954C319.617 149.865 319.38 149.955 319.291 150.156L276.133 246.136C276.042 246.339 276.134 246.578 276.34 246.669C276.545 246.76 276.785 246.668 276.876 246.464Z" fill="#E6FFFF"/>
<path opacity="0.0879" d="M338.618 283.401L257.448 232.168C257.281 232.062 257.059 232.111 256.952 232.278C256.846 232.444 256.895 232.665 257.063 232.771L338.232 284.004C338.399 284.11 338.622 284.061 338.728 283.894C338.835 283.727 338.785 283.507 338.618 283.401Z" fill="#2D9E45"/>
<path opacity="0.5172" d="M174.53 0.000304562L160.492 49.0007C160.444 49.1918 160.563 49.3853 160.755 49.4329C160.939 49.4781 161.127 49.373 161.184 49.193L175.278 0.000304529L174.53 0.000304562Z" fill="#2D9E45"/>
<path opacity="0.3819" d="M212.73 540.934C212.537 540.984 212.421 541.179 212.471 541.37L265.253 742L265.994 742L213.169 541.191C213.119 541 212.922 540.885 212.73 540.934Z" fill="#FAF2FE"/>
<path opacity="0.6159" d="M338.783 283.653L320.01 150.267C319.983 150.072 319.801 149.935 319.605 149.962C319.407 149.989 319.27 150.17 319.297 150.365L338.07 283.752C338.098 283.947 338.279 284.084 338.476 284.056C338.673 284.029 338.811 283.849 338.783 283.653Z" fill="#2D9E45"/>
<path opacity="0.4397" d="M231.604 241.781L319.914 150.565C320.051 150.423 320.047 150.196 319.904 150.06C319.76 149.924 319.533 149.928 319.395 150.071L231.086 241.287C230.948 241.429 230.953 241.655 231.096 241.791C231.239 241.928 231.467 241.923 231.604 241.781Z" fill="#2D9E45"/>
<path opacity="0.6776" d="M118.382 133.403L104.376 274.503C104.359 274.699 104.505 274.873 104.702 274.89C104.898 274.907 105.072 274.765 105.091 274.572L119.098 133.474C119.118 133.278 118.974 133.103 118.776 133.083C118.578 133.063 118.402 133.206 118.382 133.403Z" fill="#2D9E45"/>
<path opacity="0.425" d="M104.794 274.889L276.565 246.653C276.761 246.62 276.893 246.436 276.859 246.242C276.826 246.047 276.64 245.917 276.445 245.949L104.677 274.184C104.481 274.217 104.349 274.4 104.381 274.594C104.413 274.789 104.598 274.921 104.794 274.889Z" fill="#E9FDFF"/>
<path opacity="0.4414" d="M161.193 49.05L154.896 1.95525C154.871 1.75985 154.691 1.62133 154.493 1.64668C154.296 1.67142 154.156 1.85079 154.182 2.0468L160.483 49.144C160.526 49.3363 160.718 49.4581 160.911 49.416C161.082 49.3783 161.202 49.2238 161.193 49.05Z" fill="#2D9E45"/>
<path opacity="0.9748" d="M338.647 283.341L276.717 245.956C276.525 245.84 276.274 245.9 276.157 246.091C276.04 246.282 276.101 246.53 276.293 246.646L338.203 284.064C338.407 284.18 338.668 284.111 338.786 283.909C338.9 283.713 338.838 283.463 338.647 283.341Z" fill="#2D9E45"/>
<path opacity="0.3614" d="M197.784 23.4381L160.634 48.8027C160.471 48.9152 160.43 49.1372 160.543 49.2998C160.656 49.4618 160.88 49.5026 161.043 49.3907L198.192 24.0261C198.356 23.9135 198.397 23.6916 198.284 23.5289C198.171 23.3669 197.947 23.3261 197.784 23.4381Z" fill="#2D9E45"/>
<path opacity="0.5324" d="M231.596 241.277L118.992 133.182C118.849 133.044 118.621 133.048 118.482 133.189C118.344 133.331 118.347 133.557 118.489 133.694L231.095 241.794C231.238 241.931 231.467 241.927 231.605 241.785C231.743 241.642 231.74 241.415 231.596 241.277Z" fill="#2D9E45"/>
<path opacity="0.9719" d="M231.298 241.959L276.461 246.702C276.683 246.726 276.884 246.567 276.908 246.345C276.933 246.124 276.772 245.925 276.549 245.901L231.392 241.112C231.156 241.09 230.947 241.261 230.924 241.495C230.901 241.725 231.067 241.93 231.298 241.959Z" fill="#2D9E45"/>
<path opacity="0.5613" d="M119.087 133.531L154.887 2.0959C154.939 1.90545 154.826 1.70878 154.634 1.65622C154.442 1.60428 154.244 1.71683 154.192 1.90727L118.393 133.346C118.346 133.537 118.465 133.73 118.659 133.776C118.844 133.821 119.033 133.713 119.087 133.531Z" fill="#2D9E45"/>
<path opacity="0.5047" d="M197.697 23.5232L118.448 133.23C118.332 133.39 118.369 133.613 118.531 133.728C118.692 133.843 118.917 133.807 119.032 133.646L198.282 23.94C198.397 23.7792 198.36 23.5566 198.199 23.4416C198.037 23.3266 197.813 23.363 197.697 23.5232Z" fill="#2D9E45"/>
<path opacity="0.4269" d="M68.8958 116.489L118.622 133.775C118.811 133.832 119.012 133.725 119.07 133.537C119.124 133.359 119.032 133.17 118.858 133.101L69.1327 115.816C68.9428 115.758 68.7419 115.865 68.6844 116.054C68.6306 116.231 68.7221 116.42 68.8958 116.489Z" fill="#2D9E45"/>
<path opacity="0.4915" d="M155.017 0.00023409L154.209 1.86022C154.13 2.04139 154.215 2.25157 154.397 2.32948C154.58 2.40739 154.792 2.32392 154.87 2.14213L155.801 0.000234056L155.017 0.00023409Z" fill="#2D9E45"/>
<path opacity="0.3502" d="M199.864 -2.87079e-05L197.631 23.6957C197.612 23.8918 197.757 24.0661 197.955 24.0853C198.152 24.1039 198.328 23.9604 198.347 23.7638L200.587 -2.87395e-05L199.864 -2.87079e-05Z" fill="#2D9E45"/>
<path opacity="0.9732" d="M231.237 241.127L104.628 274.136C104.404 274.194 104.269 274.422 104.328 274.644C104.387 274.867 104.616 275 104.84 274.942L231.453 241.944C231.68 241.885 231.816 241.655 231.756 241.429C231.697 241.203 231.465 241.068 231.237 241.127Z" fill="#2D9E45"/>
<path opacity="0.9992" d="M338.582 283.309L231.503 241.139C231.283 241.052 231.033 241.16 230.946 241.378C230.858 241.598 230.966 241.846 231.187 241.932L338.268 284.095C338.491 284.17 338.733 284.051 338.808 283.829C338.878 283.624 338.78 283.4 338.582 283.309Z" fill="#2D9E45"/>
<path opacity="0.7064" d="M68.6635 116.231L104.383 274.618C104.427 274.811 104.62 274.931 104.814 274.887C105.007 274.844 105.129 274.653 105.085 274.46L69.3647 116.073C69.3208 115.881 69.1285 115.76 68.935 115.804C68.7408 115.848 68.6196 116.039 68.6635 116.231Z" fill="#2D9E45"/>
<path opacity="0.8463" d="M88.6856 150.281L104.373 274.583C104.398 274.782 104.58 274.923 104.781 274.899C104.981 274.874 105.123 274.693 105.099 274.494L89.4567 150.183C89.4295 149.971 89.2347 149.822 89.022 149.849C88.8086 149.876 88.6584 150.069 88.6856 150.281Z" fill="#F3F0FF"/>
<path opacity="0.3736" d="M231.566 241.254L69.2341 115.869C69.0771 115.748 68.8507 115.777 68.7289 115.933C68.6071 116.09 68.6362 116.314 68.7939 116.435L231.125 241.817C231.286 241.931 231.511 241.893 231.626 241.733C231.734 241.582 231.708 241.374 231.566 241.254Z" fill="#2D9E45"/>
<path opacity="0.9851" d="M198.185 23.3405L154.736 1.6117C154.517 1.50968 154.255 1.60305 154.152 1.82071C154.052 2.03094 154.136 2.28198 154.344 2.39081L197.79 24.1203C198.011 24.2186 198.271 24.1203 198.371 23.9001C198.464 23.6936 198.383 23.4518 198.185 23.3405Z" fill="#2D9E45"/>
<path opacity="0.6355" d="M231.541 241.237L89.2665 149.932C89.0995 149.825 88.8769 149.872 88.7693 150.038C88.6617 150.204 88.7093 150.425 88.8763 150.532L231.15 241.834C231.324 241.929 231.542 241.865 231.638 241.693C231.724 241.538 231.682 241.344 231.541 241.237Z" fill="#2D9E45"/>
<path opacity="0.7884" d="M425.706 213.727L338.201 283.421C338.046 283.545 338.021 283.77 338.145 283.924C338.27 284.078 338.497 284.103 338.652 283.98L426.182 214.32C426.336 214.177 426.345 213.936 426.202 213.783C426.072 213.645 425.862 213.621 425.706 213.727Z" fill="#2D9E45"/>
<path opacity="0.9096" d="M69.3506 116.399L154.868 2.2443C155.003 2.06437 154.966 1.80958 154.784 1.6754C154.603 1.54123 154.347 1.57835 154.211 1.75828L68.6778 115.905C68.5405 116.089 68.5795 116.35 68.7656 116.486C68.9511 116.623 69.2133 116.584 69.3506 116.399Z" fill="#FFF7F5"/>
<path opacity="0.8324" d="M197.765 23.4233L68.7859 115.838C68.6116 115.962 68.5726 116.204 68.6988 116.377C68.8249 116.55 69.0679 116.588 69.2423 116.463L198.212 24.0367C198.376 23.9044 198.4 23.6657 198.267 23.5031C198.144 23.354 197.929 23.32 197.765 23.4233Z" fill="#2D9E45"/>
<path opacity="0.3506" d="M425.893 213.673L231.296 241.182C231.099 241.209 230.962 241.389 230.989 241.585C231.016 241.78 231.198 241.917 231.395 241.89L425.995 214.377C426.188 214.332 426.308 214.139 426.262 213.948C426.222 213.78 426.067 213.664 425.893 213.673Z" fill="#2D9E45"/>
<path opacity="0.7863" d="M154.212 1.85571L88.744 150.088C88.6661 150.269 88.7502 150.479 88.9326 150.557C89.1132 150.633 89.3222 150.552 89.4025 150.374L154.871 2.1457C154.951 1.96515 154.869 1.75372 154.687 1.67334C154.505 1.59358 154.292 1.67515 154.212 1.85571Z" fill="#FFF6F5"/>
<path opacity="0.7575" d="M197.714 23.499L88.7994 149.998C88.6695 150.148 88.6868 150.374 88.8377 150.503C88.9886 150.632 89.2161 150.615 89.3466 150.466L198.26 23.9627C198.384 23.8088 198.36 23.5843 198.205 23.4606C198.057 23.3425 197.842 23.3592 197.714 23.499Z" fill="#2D9E45"/>
<path opacity="0.9746" d="M68.6252 116.376L88.6833 150.46C88.815 150.67 89.0945 150.735 89.3066 150.604C89.5119 150.478 89.5805 150.213 89.463 150.003L69.3994 115.928C69.2677 115.72 68.9913 115.657 68.7816 115.788C68.5819 115.913 68.5139 116.17 68.6252 116.376Z" fill="#2D9E45"/>
<path opacity="0.0545" d="M108.784 612.12L159.482 699.249L81.2915 665.125L108.784 612.12Z" fill="#E5FFF5"/>
<path opacity="0.32" d="M34.6408 509.669L51.5658 568.707L58.5239 537.59L34.6408 509.669Z" fill="#2D9E45"/>
<path opacity="0.32" d="M34.6408 509.669L51.5658 568.707L58.5239 537.59L34.6408 509.669Z" fill="#2D9E45"/>
<path opacity="0.32" d="M100.022 573.243L51.5661 568.706L58.5242 537.589L100.022 573.243Z" fill="#2D9E45"/>
<path opacity="0.32" d="M100.022 573.243L51.5661 568.706L58.5242 537.589L100.022 573.243Z" fill="#2D9E45"/>
<path opacity="0.021" d="M54.5232 587.462L100.021 573.243L108.784 612.12L54.5232 587.462Z" fill="#EDFFF5"/>
<path opacity="0.1496" d="M54.5233 587.462L34.6408 509.669L51.5658 568.706L54.5233 587.462Z" fill="#F6FFF2"/>
<path opacity="0.2273" d="M54.5232 587.462L100.021 573.243L58.5238 537.589L54.5232 587.462Z" fill="#F2FFF0"/>
<path opacity="0.2696" d="M54.5236 587.462L100.022 573.243L51.5661 568.706L54.5236 587.462Z" fill="#2D9E45"/>
<path opacity="0.1037" d="M85.1425 515.487L54.5232 587.462L58.5238 537.589L85.1425 515.487Z" fill="#2D9E45"/>
<path opacity="0.133" d="M85.1425 515.487L54.5232 587.462L100.021 573.243L85.1425 515.487Z" fill="#EFFFF4"/>
<path opacity="0.213" d="M3.05176e-05 742L13.0537 742L30.2891 736.77L2.79345e-05 682.905L3.05176e-05 742Z" fill="#2D9E45"/>
<path opacity="0.213" d="M3.05176e-05 742L13.0537 742L30.2891 736.77L2.79345e-05 682.905L3.05176e-05 742Z" fill="#2D9E45"/>
<path opacity="0.213" d="M3.05176e-05 742L13.0537 742L30.2891 736.77L2.79345e-05 682.905L3.05176e-05 742Z" fill="#2D9E45"/>
<path opacity="0.2796" d="M38.4462 455.126L80.0984 469.202L85.1428 515.487L38.4462 455.126Z" fill="#2D9E45"/>
<path opacity="0.2796" d="M38.4462 455.126L80.0984 469.202L85.1428 515.487L38.4462 455.126Z" fill="#2D9E45"/>
<path opacity="0.2796" d="M38.4462 455.126L80.0984 469.202L85.1428 515.487L38.4462 455.126Z" fill="#2D9E45"/>
<path opacity="0.2102" d="M27.5435 742L30.8689 742L30.2889 736.77L27.5435 742Z" fill="#F5FAFA"/>
<path opacity="0.1791" d="M80.0985 469.202L152.403 457.691L85.1428 515.487L80.0985 469.202Z" fill="#FCFFE4"/>
<path opacity="0.0259" d="M32.0984 742L31.7423 734.556L30.2892 736.77L30.8692 742L32.0984 742Z" fill="#F4FBEB"/>
<path opacity="0.1127" d="M3.03674e-05 363.611L7.69395 367.048L49.5829 363.462L2.97774e-05 350.114L3.03674e-05 363.611Z" fill="#2D9E45"/>
<path opacity="0.1813" d="M7.69406 367.048L49.583 363.462L108.662 331.94L7.69406 367.048Z" fill="#2D9E45"/>
<path opacity="0.21" d="M3.02614e-05 361.188L7.69395 367.048L3.01474e-05 358.579L3.02614e-05 361.188Z" fill="#2D9E45"/>
<path opacity="0.0903" d="M156.435 367.906L49.583 363.463L108.662 331.941L156.435 367.906Z" fill="#2D9E45"/>
<path opacity="0.01" d="M32.8117 742L32.1995 687.676L31.742 734.556L32.0981 742L32.8117 742Z" fill="#EDF8FA"/>
<path opacity="0.1856" d="M8.69052 551.643L55.6338 551.946L5.73984 618.677L8.69052 551.643Z" fill="#2D9E45"/>
<path opacity="0.1856" d="M8.69052 551.643L55.6338 551.946L5.73984 618.677L8.69052 551.643Z" fill="#2D9E45"/>
<path opacity="0.0331" d="M8.69052 551.642L32.1995 687.676L5.73983 618.676L8.69052 551.642Z" fill="#2D9E45"/>
<path opacity="0.0719" d="M183.955 414.312L156.435 367.906L108.662 331.94L183.955 414.312Z" fill="#2D9E45"/>
<path opacity="0.011" d="M3.05176e-05 281.527L44.6282 229.423L2.8521e-05 235.85L3.05176e-05 281.527Z" fill="#2D9E45"/>
<path opacity="0.0743" d="M3.00062e-05 722.856L31.7422 734.556L32.1997 687.676L2.88221e-05 695.768L3.00062e-05 722.856Z" fill="#F4F2FA"/>
<path opacity="0.1151" d="M3.0047e-05 218.658L44.6282 229.423L47.6426 150.259L2.92138e-05 199.597L3.0047e-05 218.658Z" fill="#F9FFF7"/>
<path opacity="0.1994" d="M3.05176e-05 281.527L44.6282 229.423L2.77695e-05 218.658L3.05176e-05 281.527Z" fill="#2D9E45"/>
<path opacity="0.0876" d="M183.955 414.312L156.435 367.906L175.143 320.572L183.955 414.312Z" fill="#2D9E45"/>
<path opacity="0.017" d="M126.347 617.397L98.6824 515.043L55.634 551.945L126.347 617.397Z" fill="#2D9E45"/>
<path opacity="0.1218" d="M98.6824 515.043L95.3391 574.275L55.634 551.945L98.6824 515.043Z" fill="#2D9E45"/>
<path opacity="0.0366" d="M2.86112e-05 299.786L21.9867 343.4L44.6282 229.424L2.78131e-05 281.527L2.86112e-05 299.786Z" fill="#2D9E45"/>
<path opacity="0.1154" d="M3.05176e-05 718.25L32.1997 687.676L2.95349e-05 695.768L3.05176e-05 718.25Z" fill="#F7EDFC"/>
<path opacity="0.2439" d="M126.346 617.397L98.6821 515.043L95.3388 574.275L126.346 617.397Z" fill="#2D9E45"/>
<path opacity="0.1584" d="M93.5296 443.519L98.6822 515.043L95.3388 574.275L93.5296 443.519Z" fill="#2D9E45"/>
<path opacity="0.0304" d="M2.9823e-05 327.51L21.9867 343.4L2.71763e-05 266.961L2.9823e-05 327.51Z" fill="#2D9E45"/>
<path opacity="0.0285" d="M112.564 360.507L183.955 414.312L175.143 320.572L112.564 360.507Z" fill="#2D9E45"/>
<path opacity="0.01" d="M2.78634e-05 299.786L21.9867 343.4L112.564 360.507L2.75155e-05 291.828L2.78634e-05 299.786Z" fill="#2D9E45"/>
<path opacity="0.0166" d="M112.564 360.507L93.5296 443.519L98.6822 515.043L112.564 360.507Z" fill="#2D9E45"/>
<path opacity="0.1744" d="M86.7341 660.818L126.346 617.397L95.3388 574.275L86.7341 660.818Z" fill="#2D9E45"/>
<path opacity="0.0784" d="M3.05176e-05 731.384L51.6278 710.996L2.95259e-05 708.697L3.05176e-05 731.384Z" fill="#F5EAF5"/>
<path opacity="0.32" d="M156.602 336.745L175.143 320.573L174.961 288.395L156.602 336.745Z" fill="#2D9E45"/>
<path opacity="0.32" d="M156.602 336.745L175.143 320.573L174.961 288.395L156.602 336.745Z" fill="#2D9E45"/>
<path opacity="0.32" d="M156.602 336.745L175.143 320.573L174.961 288.395L156.602 336.745Z" fill="#2D9E45"/>
<path opacity="0.2073" d="M112.564 360.507L175.143 320.573L174.961 288.395L112.564 360.507Z" fill="#2D9E45"/>
<path opacity="0.0428" d="M86.734 660.818L126.346 617.397L4.12532 641.168L86.734 660.818Z" fill="#FFF6FB"/>
<path opacity="0.1131" d="M3.05176e-05 731.384L51.6278 710.996L4.12555 641.169L2.72199e-05 655.941L3.05176e-05 731.384Z" fill="#F5EBF7"/>
<path opacity="0.2743" d="M86.734 660.818L51.6276 710.996L112.466 741.304L86.734 660.818Z" fill="#2D9E45"/>
<path opacity="0.2743" d="M86.734 660.818L51.6276 710.996L112.466 741.304L86.734 660.818Z" fill="#2D9E45"/>
<path opacity="0.2743" d="M86.734 660.818L51.6276 710.996L112.466 741.304L86.734 660.818Z" fill="#2D9E45"/>
<path opacity="0.0987" d="M86.2051 262.774L112.564 360.507L174.961 288.395L86.2051 262.774Z" fill="#2D9E45"/>
<path opacity="0.0987" d="M86.2051 262.774L112.564 360.507L174.961 288.395L86.2051 262.774Z" fill="#2D9E45"/>
<path opacity="0.2434" d="M86.7345 660.818L51.628 710.996L4.12577 641.168L86.7345 660.818Z" fill="#FAF0FA"/>
<path opacity="0.2596" d="M156.601 336.745L112.564 360.507L133.698 352.433L156.601 336.745Z" fill="#2D9E45"/>
<path opacity="0.2596" d="M156.601 336.745L112.564 360.507L133.698 352.433L156.601 336.745Z" fill="#2D9E45"/>
<path opacity="0.0735" d="M228.418 105.225L155.738 77.2937L121.488 124.879L228.418 105.225Z" fill="#2D9E45"/>
<path opacity="0.01" d="M60.2805 742L94.6339 742L51.6276 710.996L60.2805 742Z" fill="#EDEEF5"/>
<path opacity="0.0214" d="M156.601 336.745L101.052 278.563L133.698 352.433L156.601 336.745Z" fill="#2D9E45"/>
<path opacity="0.072" d="M112.564 360.507L163.27 392.145L133.698 352.433L112.564 360.507Z" fill="#2D9E45"/>
<path opacity="0.1312" d="M86.2051 262.774L101.052 278.563L133.698 352.433L86.2051 262.774Z" fill="#2D9E45"/>
<path opacity="0.1352" d="M155.738 77.2938L118.934 153.887L81.9976 86.5045L155.738 77.2938Z" fill="#2D9E45"/>
<path opacity="0.066" d="M149.798 160.155L228.418 105.225L155.738 77.2935L149.798 160.155Z" fill="#2D9E45"/>
<path opacity="0.0235" d="M149.798 160.155L228.418 105.225L81.9976 86.5042L149.798 160.155Z" fill="#2D9E45"/>
<path opacity="0.1358" d="M86.2049 262.774L37.6923 254.104L101.052 278.563L86.2049 262.774Z" fill="#2D9E45"/>
<path opacity="0.2771" d="M149.798 160.155L118.934 153.886L81.9976 86.5042L149.798 160.155Z" fill="#2D9E45"/>
<path opacity="0.2771" d="M149.798 160.155L118.934 153.886L81.9976 86.5042L149.798 160.155Z" fill="#2D9E45"/>
<path opacity="0.01" d="M2.98558e-05 337.294L133.698 352.433L101.052 278.563L2.97827e-05 335.621L2.98558e-05 337.294Z" fill="#2D9E45"/>
<path opacity="0.0188" d="M3.05176e-05 366.349L37.6924 254.104L2.90127e-05 331.921L3.05176e-05 366.349Z" fill="#FDF7FF"/>
<path opacity="0.1157" d="M168.226 662.346L283.436 667.101L237.109 602.86L168.226 662.346Z" fill="#FFFDF5"/>
<path opacity="0.1771" d="M3.05176e-05 335.622L101.052 278.563L37.6924 254.104L3.03558e-05 331.921L3.05176e-05 335.622Z" fill="#FEFBFF"/>
<path opacity="0.2372" d="M176.298 132.485L149.798 160.155L118.934 153.886L176.298 132.485Z" fill="#2D9E45"/>
<path opacity="0.1236" d="M277.263 742L281.209 742L283.436 667.101L237.109 602.86L277.263 742Z" fill="#FFFEF3"/>
<path opacity="0.0396" d="M192.871 513.866L283.436 667.101L237.109 602.86L192.871 513.866Z" fill="#FFFEF6"/>
<path opacity="0.01" d="M257.11 742L281.209 742L283.436 667.101L257.11 742Z" fill="#F5F8F7"/>
<path opacity="0.2155" d="M271.638 162.983L288.76 286.103L257.255 232.469L271.638 162.983Z" fill="#2D9E45"/>
<path opacity="0.2155" d="M271.638 162.983L288.76 286.103L257.255 232.469L271.638 162.983Z" fill="#2D9E45"/>
<path opacity="0.0912" d="M176.298 132.485L160.839 49.0943L149.798 160.155L176.298 132.485Z" fill="#2D9E45"/>
<path opacity="0.0572" d="M212.82 541.282L192.871 513.866L237.109 602.86L212.82 541.282Z" fill="#2D9E45"/>
<path opacity="0.2102" d="M271.638 162.984L257.255 232.469L319.654 150.316L271.638 162.984Z" fill="#2D9E45"/>
<path opacity="0.0187" d="M118.74 133.44L271.637 162.983L176.298 132.485L118.74 133.44Z" fill="#2D9E45"/>
<path opacity="0.1538" d="M118.74 133.44L176.298 132.485L160.84 49.0948L118.74 133.44Z" fill="#2D9E45"/>
<path opacity="0.1538" d="M118.74 133.44L176.298 132.485L160.84 49.0948L118.74 133.44Z" fill="#2D9E45"/>
<path opacity="0.112" d="M257.255 232.469L276.505 246.301L319.654 150.316L257.255 232.469Z" fill="#F0FFFF"/>
<path opacity="0.1247" d="M271.638 162.983L276.505 246.301L319.654 150.316L271.638 162.983Z" fill="#2D9E45"/>
<path opacity="0.0455" d="M338.427 283.702L276.505 246.301L319.654 150.315L338.427 283.702Z" fill="#2D9E45"/>
<path opacity="0.1462" d="M338.427 283.702L231.345 241.535L276.505 246.301L338.427 283.702Z" fill="#2D9E45"/>
<path opacity="0.1462" d="M338.427 283.702L231.345 241.535L276.505 246.301L338.427 283.702Z" fill="#2D9E45"/>
<path opacity="0.1412" d="M197.989 23.73L69.0141 116.15L154.539 2.00112L197.989 23.73Z" fill="#FFFAF4"/>
<path opacity="0.1316" d="M69.0141 116.15L154.539 2.00113L89.071 150.23L69.0141 116.15Z" fill="#FFF4F6"/>
</g>
</svg>
