<svg width="18" height="19" viewBox="0 0 18 19" fill="none" xmlns="http://www.w3.org/2000/svg">
<path d="M11.625 10.625H9.9825C9.69756 10.8758 9.3278 11.0087 8.94839 10.9966C8.56899 10.9845 8.20842 10.8284 7.94001 10.56C7.67159 10.2916 7.51548 9.93101 7.5034 9.55161C7.49133 9.1722 7.6242 8.80244 7.875 8.5175V5.75C7.875 5.45163 7.99353 5.16548 8.2045 4.9545C8.41548 4.74353 8.70163 4.625 9 4.625C9.29837 4.625 9.58452 4.74353 9.7955 4.9545C10.0065 5.16548 10.125 5.45163 10.125 5.75V8.375H11.625C11.9234 8.375 12.2095 8.49353 12.4205 8.7045C12.6315 8.91548 12.75 9.20163 12.75 9.5C12.75 9.79837 12.6315 10.0845 12.4205 10.2955C12.2095 10.5065 11.9234 10.625 11.625 10.625ZM9 0.5C8.70163 0.5 8.41548 0.618526 8.2045 0.829505C7.99353 1.04048 7.875 1.32663 7.875 1.625C7.875 1.92337 7.99353 2.20952 8.2045 2.4205C8.41548 2.63147 8.70163 2.75 9 2.75C10.7896 2.75199 12.5053 3.46378 13.7708 4.72922C15.0362 5.99466 15.748 7.7104 15.75 9.5C15.75 9.79837 15.8685 10.0845 16.0795 10.2955C16.2905 10.5065 16.5766 10.625 16.875 10.625C17.1734 10.625 17.4595 10.5065 17.6705 10.2955C17.8815 10.0845 18 9.79837 18 9.5C17.9974 7.11384 17.0484 4.82616 15.3611 3.13889C13.6738 1.45162 11.3862 0.502581 9 0.5ZM2.25 9.875C2.25 9.6525 2.18402 9.43499 2.0604 9.24998C1.93679 9.06498 1.76109 8.92078 1.55552 8.83564C1.34995 8.75049 1.12375 8.72821 0.905524 8.77162C0.687295 8.81502 0.486839 8.92217 0.329505 9.0795C0.172171 9.23684 0.0650254 9.43729 0.0216171 9.65552C-0.0217913 9.87375 0.000487451 10.1 0.085636 10.3055C0.170785 10.5111 0.314979 10.6868 0.499984 10.8104C0.684989 10.934 0.902497 11 1.125 11C1.42337 11 1.70952 10.8815 1.9205 10.6705C2.13147 10.4595 2.25 10.1734 2.25 9.875ZM5.055 1.9205C4.8325 1.9205 4.61499 1.98648 4.42998 2.1101C4.24498 2.23371 4.10078 2.40941 4.01564 2.61498C3.93049 2.82055 3.90821 3.04675 3.95162 3.26498C3.99503 3.48321 4.10217 3.68366 4.2595 3.84099C4.41684 3.99833 4.61729 4.10548 4.83552 4.14888C5.05375 4.19229 5.27995 4.17001 5.48552 4.08486C5.69109 3.99972 5.86679 3.85552 5.9904 3.67052C6.11402 3.48551 6.18 3.268 6.18 3.0455C6.18 2.74713 6.06147 2.46098 5.85049 2.25C5.63952 2.03903 5.35337 1.9205 5.055 1.9205ZM2.18475 4.8125C1.96225 4.8125 1.74474 4.87848 1.55973 5.0021C1.37473 5.12571 1.23053 5.30141 1.14539 5.50698C1.06024 5.71255 1.03796 5.93875 1.08137 6.15698C1.12478 6.37521 1.23192 6.57566 1.38926 6.733C1.54659 6.89033 1.74705 6.99747 1.96527 7.04088C2.1835 7.08429 2.4097 7.06201 2.61527 6.97686C2.82084 6.89172 2.99654 6.74752 3.12015 6.56252C3.24377 6.37751 3.30975 6.16 3.30975 5.9375C3.30975 5.63913 3.19122 5.35298 2.98025 5.142C2.76927 4.93103 2.48312 4.8125 2.18475 4.8125ZM5.055 15.5795C4.8325 15.5795 4.61499 15.6455 4.42998 15.7691C4.24498 15.8927 4.10078 16.0684 4.01564 16.274C3.93049 16.4795 3.90821 16.7057 3.95162 16.924C3.99503 17.1422 4.10217 17.3427 4.2595 17.5C4.41684 17.6573 4.61729 17.7645 4.83552 17.8079C5.05375 17.8513 5.27995 17.829 5.48552 17.7439C5.69109 17.6587 5.86679 17.5145 5.9904 17.3295C6.11402 17.1445 6.18 16.927 6.18 16.7045C6.18 16.4061 6.06147 16.12 5.85049 15.909C5.63952 15.698 5.35337 15.5795 5.055 15.5795ZM2.18475 12.6875C1.96225 12.6875 1.74474 12.7535 1.55973 12.8771C1.37473 13.0007 1.23053 13.1764 1.14539 13.382C1.06024 13.5875 1.03796 13.8137 1.08137 14.032C1.12478 14.2502 1.23192 14.4507 1.38926 14.608C1.54659 14.7653 1.74705 14.8725 1.96527 14.9159C2.1835 14.9593 2.4097 14.937 2.61527 14.8519C2.82084 14.7667 2.99654 14.6225 3.12015 14.4375C3.24377 14.2525 3.30975 14.035 3.30975 13.8125C3.30975 13.5141 3.19122 13.228 2.98025 13.017C2.76927 12.806 2.48312 12.6875 2.18475 12.6875ZM9 16.25C8.7775 16.25 8.55999 16.316 8.37498 16.4396C8.18998 16.5632 8.04578 16.7389 7.96064 16.9445C7.87549 17.15 7.85321 17.3762 7.89662 17.5945C7.94003 17.8127 8.04717 18.0132 8.2045 18.1705C8.36184 18.3278 8.56229 18.435 8.78052 18.4784C8.99875 18.5218 9.22495 18.4995 9.43052 18.4144C9.63609 18.3292 9.81179 18.185 9.9354 18C10.059 17.815 10.125 17.5975 10.125 17.375C10.125 17.0766 10.0065 16.7905 9.7955 16.5795C9.58452 16.3685 9.29837 16.25 9 16.25ZM15.8295 12.32C15.607 12.32 15.3895 12.386 15.2045 12.5096C15.0195 12.6332 14.8753 12.8089 14.7901 13.0145C14.705 13.22 14.6827 13.4462 14.7261 13.6645C14.7695 13.8827 14.8767 14.0832 15.034 14.2405C15.1913 14.3978 15.3918 14.505 15.61 14.5484C15.8282 14.5918 16.0545 14.5695 16.26 14.4844C16.4656 14.3992 16.6413 14.255 16.7649 14.07C16.8885 13.885 16.9545 13.6675 16.9545 13.445C16.9545 13.1466 16.836 12.8605 16.625 12.6495C16.414 12.4385 16.1279 12.32 15.8295 12.32ZM12.9375 15.1902C12.715 15.1902 12.4975 15.2562 12.3125 15.3798C12.1275 15.5035 11.9833 15.6792 11.8981 15.8847C11.813 16.0903 11.7907 16.3165 11.8341 16.5347C11.8775 16.753 11.9847 16.9534 12.142 17.1107C12.2993 17.2681 12.4998 17.3752 12.718 17.4186C12.9363 17.462 13.1625 17.4398 13.368 17.3546C13.5736 17.2695 13.7493 17.1253 13.8729 16.9403C13.9965 16.7553 14.0625 16.5378 14.0625 16.3152C14.0625 16.0169 13.944 15.7307 13.733 15.5198C13.522 15.3088 13.2359 15.1902 12.9375 15.1902Z" fill="white"/>
</svg>
